<svg id="visual" viewBox="0 0 960 540" width="960" height="540" xmlns="http://www.w3.org/2000/svg" xmlns:xlink="http://www.w3.org/1999/xlink" version="1.1"><rect x="0" y="0" width="960" height="540" fill="#ece7e1"></rect><path d="M703 540L705.2 532.5C707.3 525 711.7 510 714.3 495C717 480 718 465 704.8 450C691.7 435 664.3 420 670.2 405C676 390 715 375 741.5 360C768 345 782 330 790.5 315C799 300 802 285 792.7 270C783.3 255 761.7 240 741.5 225C721.3 210 702.7 195 698.2 180C693.7 165 703.3 150 700.3 135C697.3 120 681.7 105 675.7 90C669.7 75 673.3 60 694 45C714.7 30 752.3 15 771.2 7.5L790 0L960 0L960 7.5C960 15 960 30 960 45C960 60 960 75 960 90C960 105 960 120 960 135C960 150 960 165 960 180C960 195 960 210 960 225C960 240 960 255 960 270C960 285 960 300 960 315C960 330 960 345 960 360C960 375 960 390 960 405C960 420 960 435 960 450C960 465 960 480 960 495C960 510 960 525 960 532.5L960 540Z" fill="#98C6ED" stroke-linecap="round" stroke-linejoin="miter"></path></svg>