<svg
  width="228"
  height="696"
  viewBox="0 0 228 696"
  fill="none"
  xmlns="http://www.w3.org/2000/svg"
>
  <path
    d="M152.87 296.261C138.141 293.706 123.41 304.142 117.055 317.674C110.702 331.207 111.199 346.973 113.862 361.683C115.379 370.063 117.659 378.551 122.705 385.413C131.273 397.065 146.305 402.041 160.661 403.795C178.391 405.962 198.089 403.557 210.851 391.059C220.255 381.851 224.462 368.554 226.453 355.545C227.91 346.025 228.305 335.973 224.606 327.082C220.453 317.097 211.517 309.71 201.702 305.169C191.886 300.627 181.13 298.591 170.501 296.597C161.695 294.942 152.298 293.342 144.017 296.763C138.929 298.867 134.746 302.706 131.137 306.865C119.893 319.823 113.27 336.713 112.707 353.861C112.385 363.735 114.005 373.595 116.545 383.145C117.831 387.985 121.139 387.294 124.073 391.354C129.803 399.287 139.679 402.854 148.95 405.989C156.779 408.635 164.91 411.319 173.131 410.471C180.387 409.723 187.11 406.254 193.049 402.019C209.953 389.963 220.035 376.565 223.422 356.081C225.631 342.715 223.773 327.578 214.018 318.177C209.361 313.689 203.342 310.919 197.35 308.483C180.143 301.486 163.141 303.411 144.77 300.657"
    fill="#f7d8ad"
  />
  <path
    d="M152.87 412.11C138.141 409.556 123.41 419.992 117.055 433.524C110.702 447.057 111.199 462.822 113.862 477.533C115.379 485.913 117.659 494.401 122.705 501.262C131.273 512.914 146.305 517.89 160.661 519.645C178.391 521.812 198.089 519.406 210.851 506.909C220.255 497.701 224.462 484.404 226.453 471.394C227.91 461.876 228.305 451.822 224.606 442.932C220.453 432.946 211.517 425.56 201.702 421.018C191.886 416.477 181.13 414.441 170.501 412.446C161.695 410.792 152.298 409.192 144.017 412.613C138.929 414.717 134.746 418.556 131.137 422.714C119.893 435.673 113.27 452.562 112.707 469.71C112.385 479.585 114.005 489.446 116.545 498.994C117.831 503.834 121.139 503.144 124.073 507.204C129.803 515.137 139.679 518.704 148.95 521.838C156.779 524.485 164.91 527.169 173.131 526.321C180.387 525.573 187.11 522.104 193.049 517.869C209.953 505.813 220.035 492.414 223.422 471.93C225.631 458.565 223.773 443.428 214.018 434.026C209.361 429.538 203.342 426.769 197.35 424.333C180.143 417.336 162.806 418.533 144.435 415.778"
    fill="#6b51a2"
  />
  <path
    d="M152.87 527.958C138.141 525.403 123.41 535.839 117.055 549.371C110.702 562.905 111.199 578.67 113.862 593.381C115.379 601.761 117.659 610.249 122.705 617.11C131.273 628.762 146.305 633.738 160.661 635.493C178.391 637.659 198.089 635.254 210.851 622.757C220.255 613.549 224.462 600.251 226.453 587.242C227.91 577.723 228.305 567.67 224.606 558.779C220.453 548.794 211.517 541.407 201.702 536.866C191.886 532.325 181.13 530.289 170.501 528.294C161.695 526.639 152.298 525.039 144.017 528.461C138.929 530.565 134.746 534.403 131.137 538.562C119.893 551.522 113.27 568.41 112.707 585.558C112.385 595.433 114.005 605.294 116.545 614.842C117.831 619.682 121.139 618.991 124.073 623.051C129.803 630.985 139.679 634.551 148.95 637.686C156.779 640.333 164.91 643.017 173.131 642.169C180.387 641.421 187.11 637.951 193.049 633.717C209.953 621.661 220.035 608.262 223.422 587.778C225.631 574.413 223.773 559.275 214.018 549.874C209.361 545.386 203.342 542.617 197.35 540.181C180.143 533.183 162.137 536.106 143.767 533.351"
    fill="#d5b9d9"
  />
  <path
    d="M152.87 -51.2842C138.141 -53.8388 123.41 -43.4028 117.055 -29.8695C110.702 -16.3375 111.199 -0.572159 113.862 14.1385C115.379 22.5185 117.659 31.0065 122.705 37.8678C131.273 49.5198 146.305 54.4958 160.661 56.2505C178.391 58.4172 198.089 56.0118 210.851 43.5145C220.255 34.3065 224.462 21.0092 226.453 7.99984C227.91 -1.52016 228.305 -11.5722 224.606 -20.4629C220.453 -30.4482 211.517 -37.835 201.702 -42.3763C191.886 -46.9176 181.13 -48.9536 170.501 -50.9482C161.695 -52.6029 152.298 -54.2029 144.017 -50.7816C138.929 -48.6776 134.746 -44.839 131.137 -40.6803C119.893 -27.7203 113.27 -10.8322 112.707 6.31575C112.385 16.1904 114.005 26.0518 116.545 35.5998C117.831 40.4398 121.139 39.7491 124.073 43.8091C129.803 51.7424 139.679 55.309 148.95 58.4437C156.779 61.0903 164.91 63.7744 173.131 62.9264C180.387 62.1784 187.11 58.7091 193.049 54.4744C209.953 42.4184 220.035 29.0198 223.422 8.53581C225.631 -4.82953 223.773 -19.9668 214.018 -29.3682C209.361 -33.8562 203.342 -36.6255 197.35 -39.0615C180.143 -46.0589 162.137 -42.0975 143.767 -44.8522"
    fill="#70bf44"
  />
  <path
    d="M152.87 64.5635C138.141 62.0088 123.41 72.4447 117.055 85.978C110.702 99.51 111.199 115.275 113.862 129.986C115.379 138.366 117.659 146.854 122.705 153.715C131.273 165.367 146.305 170.343 160.661 172.098C178.391 174.265 198.089 171.859 210.851 159.362C220.255 150.154 224.462 136.857 226.453 123.847C227.91 114.329 228.305 104.275 224.606 95.3848C220.453 85.3994 211.517 78.0128 201.702 73.4715C191.886 68.9302 181.13 66.8941 170.501 64.8994C161.695 63.2447 152.298 61.6447 144.017 65.0661C138.929 67.1701 134.746 71.0088 131.137 75.1675C119.893 88.1275 113.27 105.015 112.707 122.163C112.385 132.038 114.005 141.899 116.545 151.447C117.831 156.287 121.139 155.597 124.073 159.657C129.803 167.59 139.679 171.157 148.95 174.291C156.779 176.938 164.91 179.622 173.131 178.774C180.387 178.026 187.11 174.557 193.049 170.322C209.953 158.266 220.035 144.867 223.422 124.383C225.631 111.018 223.773 95.8808 214.018 86.4795C209.361 81.9915 203.342 79.2221 197.35 76.7861C180.143 69.7888 163.141 72.7114 144.77 69.9567"
    fill="#cee4a9"
  />
  <path
    d="M152.87 180.413C138.141 177.86 123.41 188.294 117.055 201.828C110.702 215.36 111.199 231.125 113.862 245.836C115.379 254.216 117.659 262.704 122.705 269.565C131.273 281.217 146.305 286.193 160.661 287.948C178.391 290.114 198.089 287.709 210.851 275.212C220.255 266.004 224.462 252.706 226.453 239.697C227.91 230.178 228.305 220.125 224.606 211.234C220.453 201.249 211.517 193.862 201.702 189.321C191.886 184.78 181.13 182.744 170.501 180.749C161.695 179.096 152.298 177.494 144.017 180.916C138.929 183.02 134.746 186.858 131.137 191.017C119.893 203.977 113.27 220.865 112.707 238.013C112.385 247.888 114.005 257.749 116.545 267.297C117.831 272.137 121.139 271.446 124.073 275.506C129.803 283.44 139.679 287.006 148.95 290.141C156.779 292.788 164.91 295.472 173.131 294.624C180.387 293.876 187.11 290.406 193.049 286.172C209.953 274.116 220.035 260.717 223.422 240.233C225.631 226.868 223.773 211.73 214.018 202.329C209.361 197.841 203.342 195.072 197.35 192.636C180.143 185.638 163.81 187.564 145.439 184.809"
    fill="#faa41a"
  />
  <path
    d="M152.87 643.807C138.141 641.252 123.41 651.688 117.055 665.221C110.702 678.753 111.199 694.519 113.862 709.229C115.379 717.609 117.659 726.097 122.705 732.959C131.273 744.611 146.305 749.587 160.661 751.341C178.391 753.508 198.089 751.103 210.851 738.605C220.255 729.397 224.462 716.1 226.453 703.091C227.91 693.572 228.305 683.519 224.606 674.628C220.453 664.643 211.517 657.256 201.702 652.715C191.886 648.173 181.13 646.137 170.501 644.143C161.695 642.488 152.298 640.888 144.017 644.309C138.929 646.413 134.746 650.252 131.137 654.411C119.893 667.371 113.27 684.259 112.707 701.407C112.385 711.281 114.005 721.143 116.545 730.691C117.831 735.531 121.139 734.84 124.073 738.9C129.803 746.833 139.679 750.4 148.95 753.535C156.779 756.181 164.91 758.865 173.131 758.017C180.387 757.269 187.11 753.8 193.049 749.565C209.953 737.509 220.035 724.111 223.422 703.627C225.631 690.261 223.773 675.124 214.018 665.723C209.361 661.235 203.342 658.465 197.35 656.029C180.143 649.032 162.137 652.993 143.767 650.239"
    fill="#70bf44"
  />
  <path
    d="M40.87 232.192C26.1406 229.639 11.41 240.074 5.05532 253.607C-1.29802 267.139 -0.800668 282.904 1.862 297.615C3.37933 305.995 5.65932 314.483 10.7046 321.344C19.2726 332.996 34.3047 337.972 48.6607 339.727C66.3913 341.894 86.0887 339.488 98.8513 326.991C108.255 317.783 112.462 304.486 114.453 291.476C115.91 281.958 116.305 271.904 112.606 263.014C108.453 253.028 99.5167 245.642 89.702 241.1C79.886 236.559 69.13 234.523 58.5007 232.528C49.6953 230.875 40.298 229.274 32.0167 232.695C26.9287 234.799 22.746 238.638 19.1367 242.796C7.89266 255.756 1.27 272.644 0.707335 289.792C0.384669 299.667 2.00466 309.528 4.54466 319.076C5.83132 323.916 9.13932 323.226 12.0727 327.286C17.8033 335.219 27.6793 338.786 36.95 341.92C44.7793 344.567 52.91 347.251 61.1313 346.403C68.3873 345.655 75.11 342.186 81.0486 337.951C97.9526 325.895 108.035 312.496 111.422 292.012C113.631 278.647 111.773 263.51 102.018 254.108C97.3607 249.62 91.342 246.851 85.35 244.415C68.1433 237.418 51.1407 239.343 32.77 236.588"
    fill="#f7d8ad"
  />
  <path
    d="M40.87 348.083C26.1406 345.528 11.41 355.964 5.05532 369.496C-1.29802 383.03 -0.800668 398.795 1.862 413.506C3.37933 421.886 5.65932 430.374 10.7046 437.235C19.2726 448.887 34.3047 453.863 48.6607 455.618C66.3913 457.784 86.0887 455.379 98.8513 442.882C108.255 433.674 112.462 420.376 114.453 407.367C115.91 397.847 116.305 387.795 112.606 378.904C108.453 368.919 99.5167 361.532 89.702 356.991C79.886 352.45 69.13 350.414 58.5007 348.419C49.6953 346.764 40.298 345.164 32.0167 348.586C26.9287 350.69 22.746 354.528 19.1367 358.687C7.89266 371.646 1.27 388.535 0.707335 405.683C0.384669 415.558 2.00466 425.418 4.54466 434.967C5.83132 439.807 9.13932 439.116 12.0727 443.176C17.8033 451.11 27.6793 454.676 36.95 457.811C44.7793 460.458 52.91 463.142 61.1313 462.294C68.3873 461.546 75.11 458.076 81.0486 453.842C97.9526 441.786 108.035 428.387 111.422 407.903C113.631 394.538 111.773 379.4 102.018 369.999C97.3607 365.511 91.342 362.742 85.35 360.306C68.1433 353.308 50.806 354.506 32.4353 351.751"
    fill="#6b51a2"
  />
  <path
    d="M40.87 463.973C26.1406 461.419 11.41 471.855 5.05532 485.387C-1.29802 498.92 -0.800668 514.685 1.862 529.396C3.37933 537.776 5.65932 546.264 10.7046 553.125C19.2726 564.777 34.3047 569.753 48.6607 571.508C66.3913 573.675 86.0887 571.269 98.8513 558.772C108.255 549.564 112.462 536.267 114.453 523.257C115.91 513.739 116.305 503.686 112.606 494.795C108.453 484.81 99.5167 477.423 89.702 472.882C79.886 468.34 69.13 466.304 58.5007 464.31C49.6953 462.655 40.298 461.055 32.0167 464.476C26.9287 466.58 22.746 470.419 19.1367 474.577C7.89266 487.536 1.27 504.426 0.707335 521.574C0.384669 531.448 2.00466 541.31 4.54466 550.858C5.83132 555.698 9.13932 555.007 12.0727 559.067C17.8033 567 27.6793 570.567 36.95 573.701C44.7793 576.348 52.91 579.032 61.1313 578.184C68.3873 577.436 75.11 573.967 81.0486 569.732C97.9526 557.676 108.035 544.277 111.422 523.793C113.631 510.428 111.773 495.291 102.018 485.889C97.3607 481.401 91.342 478.632 85.35 476.196C68.1433 469.199 50.1366 472.122 31.7673 469.367"
    fill="#d5b9d9"
  />
  <path
    d="M40.87 0.41114C26.1406 -2.14353 11.41 8.29239 5.05532 21.8244C-1.29802 35.3577 -0.800668 51.123 1.862 65.8337C3.37933 74.2137 5.65932 82.7017 10.7046 89.563C19.2726 101.215 34.3047 106.191 48.6607 107.946C66.3913 110.112 86.0887 107.707 98.8513 95.2098C108.255 86.0018 112.462 72.7043 114.453 59.695C115.91 50.1763 116.305 40.1231 112.606 31.2324C108.453 21.2471 99.5167 13.8603 89.702 9.31902C79.886 4.77768 69.13 2.74174 58.5007 0.747077C49.6953 -0.90759 40.298 -2.50759 32.0167 0.913744C26.9287 3.01774 22.746 6.85648 19.1367 11.0151C7.89266 23.9751 1.27 40.8631 0.707335 58.0111C0.384669 67.8857 2.00466 77.7471 4.54466 87.2951C5.83132 92.1351 9.13932 91.4444 12.0727 95.5044C17.8033 103.438 27.6793 107.004 36.95 110.139C44.7793 112.786 52.91 115.47 61.1313 114.622C68.3873 113.874 75.11 110.404 81.0486 106.17C97.9526 94.1138 108.035 80.7151 111.422 60.2311C113.631 46.8658 111.773 31.7283 102.018 22.327C97.3607 17.839 91.342 15.0698 85.35 12.6338C68.1433 5.63646 51.1407 8.55903 32.77 5.80437"
    fill="#cee4a9"
  />
  <path
    d="M40.87 116.302C26.1406 113.747 11.41 124.183 5.05532 137.716C-1.29802 151.248 -0.800668 167.014 1.862 181.724C3.37933 190.104 5.65932 198.592 10.7046 205.454C19.2726 217.106 34.3047 222.082 48.6607 223.836C66.3913 226.003 86.0887 223.598 98.8513 211.1C108.255 201.892 112.462 188.595 114.453 175.586C115.91 166.067 116.305 156.014 112.606 147.123C108.453 137.138 99.5167 129.751 89.702 125.21C79.886 120.668 69.13 118.632 58.5007 116.638C49.6953 114.983 40.298 113.383 32.0167 116.804C26.9287 118.908 22.746 122.747 19.1367 126.906C7.89266 139.866 1.27 156.754 0.707335 173.902C0.384669 183.776 2.00466 193.638 4.54466 203.186C5.83132 208.026 9.13932 207.335 12.0727 211.395C17.8033 219.328 27.6793 222.895 36.95 226.03C44.7793 228.676 52.91 231.36 61.1313 230.512C68.3873 229.764 75.11 226.295 81.0486 222.06C97.9526 210.004 108.035 196.606 111.422 176.122C113.631 162.756 111.773 147.619 102.018 138.218C97.3607 133.73 91.342 130.96 85.35 128.524C68.1433 121.527 51.81 123.452 33.4393 120.698"
    fill="#faa41a"
  />
  <path
    d="M40.87 579.864C26.1406 577.309 11.41 587.746 5.05532 601.278C-1.29802 614.811 -0.800668 630.576 1.862 645.287C3.37933 653.667 5.65932 662.155 10.7046 669.016C19.2726 680.668 34.3047 685.644 48.6607 687.399C66.3913 689.565 86.0887 687.16 98.8513 674.663C108.255 665.455 112.462 652.157 114.453 639.148C115.91 629.629 116.305 619.576 112.606 610.686C108.453 600.7 99.5167 593.313 89.702 588.772C79.886 584.231 69.13 582.195 58.5007 580.2C49.6953 578.546 40.298 576.946 32.0167 580.367C26.9287 582.471 22.746 586.309 19.1367 590.468C7.89266 603.428 1.27 620.316 0.707335 637.464C0.384669 647.339 2.00466 657.2 4.54466 666.748C5.83132 671.588 9.13932 670.898 12.0727 674.958C17.8033 682.891 27.6793 686.457 36.95 689.592C44.7793 692.239 52.91 694.923 61.1313 694.075C68.3873 693.327 75.11 689.858 81.0486 685.623C97.9526 673.567 108.035 660.168 111.422 639.684C113.631 626.319 111.773 611.181 102.018 601.78C97.3607 597.292 91.342 594.523 85.35 592.087C68.1433 585.09 50.1366 589.051 31.7673 586.296"
    fill="#70bf44"
  />
</svg>
