<svg focusable="false" class="fill-pale-pink" viewBox="0 0 50 50" xmlns="http://www.w3.org/2000/svg"><a href="/tickets"><path class="fill-pale-pink" d="M17.8626 1.35033C11.4858 0.248122 5.10894 4.75047 2.35955 10.5888C-0.391178 16.4272 -0.176697 23.2288 0.976142 29.5762C1.63299 33.1914 2.62095 36.8534 4.80464 39.814C8.51384 44.8401 15.0207 46.987 21.2353 47.7445C28.9111 48.6797 37.4367 47.6417 42.9623 42.2495C47.0321 38.2776 48.8538 32.5394 49.7158 26.9269C50.3472 22.82 50.5174 18.4833 48.9155 14.6476C47.1179 10.339 43.2505 7.15261 39.0011 5.19269C34.753 3.2341 30.0961 2.35634 25.4954 1.49462C21.683 0.781192 17.6146 0.0904715 14.03 1.56676C11.8276 2.47525 10.0165 4.13056 8.45485 5.92482C3.58746 11.516 0.720104 18.8026 0.476131 26.2014C0.336718 30.4619 1.03781 34.7158 2.13703 38.8347C2.69468 40.9229 4.12634 40.625 5.39581 42.3765C7.87709 45.7993 12.152 47.3384 16.1655 48.6904C19.5556 49.8327 23.0745 50.991 26.6335 50.625C29.7743 50.3017 32.6846 48.8053 35.2557 46.9777C42.5722 41.7766 46.9383 35.997 48.4034 27.158C49.3606 21.3918 48.5562 14.8614 44.3336 10.8053C42.3175 8.86938 39.7116 7.67499 37.1177 6.62355C29.6684 3.60417 22.3546 3.96623 14.4014 2.77719"></path></a></svg>