<svg viewBox="0 0 115 115" fill="none" xmlns="http://www.w3.org/2000/svg"><path d="M35.6789 37.9947C30.2563 33.416 21.7189 34.1587 15.8709 38.1787C10.0216 42.1987 6.44426 48.776 4.00693 55.4413C2.61893 59.2387 1.5176 63.2627 1.93893 67.284C2.65493 74.1133 7.61893 79.7573 13.0803 83.9187C19.8243 89.0587 28.4709 92.7973 36.6963 90.7387C42.7576 89.2213 47.6709 84.7827 51.6069 79.9307C54.4856 76.38 57.0589 72.356 57.6763 67.8267C58.3696 62.74 56.4803 57.5707 53.5483 53.356C50.6163 49.1413 46.6976 45.728 42.8216 42.3613C39.6109 39.572 36.1443 36.6613 31.9309 36.0773C29.3416 35.7187 26.7083 36.288 24.2323 37.1267C16.5176 39.7387 9.7536 45.0693 5.41093 51.96C2.9096 55.928 1.59626 57.52 0.345596 62.04C-0.287738 64.332 0.678928 67.616 1.07359 70.0467C1.81893 74.632 4.7096 78.5 7.75626 82.008C10.3296 84.9707 13.0163 88.02 16.5883 89.644C19.7403 91.0787 23.3256 91.2693 26.7749 90.9587C36.5909 90.0733 43.9363 87.0027 50.2363 79.4227C54.3469 74.4773 57.2163 67.8307 55.4736 61.6387C54.6429 58.684 52.8403 56.1053 50.9709 53.6707C45.5989 46.676 39.6843 42.2613 32.8203 36.7267" class="fill-bright-pink"></path><path d="M41.1151 62.2877C37.3938 56.905 37.3938 56.905 33.6724 51.5237C33.1204 50.725 32.5484 49.9077 31.7404 49.3703C30.9311 48.8343 29.8191 48.6397 28.9938 49.1503C27.9978 49.7677 27.7818 51.121 27.8364 52.293C28.1084 58.0783 32.3684 62.853 36.7818 66.605C37.9924 67.6343 39.6204 68.6863 41.0551 68.0023C41.9578 67.5717 42.4524 66.537 42.4951 65.537C42.5364 64.5383 42.2004 63.5637 41.8178 62.6397C39.7618 57.6677 36.2138 53.3223 31.7511 50.3143" class="fill-pale-pink"></path><path d="M77.6767 60.2204C73.842 56.1977 67.2794 55.5297 62.238 57.8697C57.198 60.2097 53.6434 65.0817 51.9114 70.3617C50.178 75.643 50.086 81.3244 50.514 86.8657C50.8567 91.303 51.5394 95.7724 53.2994 99.859C55.058 103.947 57.99 107.654 61.962 109.66C67.5127 112.466 74.2874 111.595 80.0447 109.24C89.678 105.303 97.578 97.3097 101.403 87.631C103.211 83.059 104.026 77.535 101.255 73.4737C99.7367 71.2484 97.3554 69.791 95.0474 68.4004C89.7847 65.2324 84.522 62.063 79.2594 58.8937C78.002 58.1364 76.7287 57.3724 75.326 56.9377C69.498 55.131 63.5487 59.443 59.7327 64.2043C53.726 71.6977 50.018 81.4097 51.274 90.9324C52.53 100.454 59.4194 109.431 68.7794 111.586C71.034 112.106 73.4087 112.232 75.654 111.678C79.5754 110.707 82.698 107.794 85.4114 104.8C88.31 101.603 90.966 98.187 93.35 94.5897C95.8434 90.8257 98.0674 86.787 99.0007 82.3697C99.934 77.9524 99.4487 73.0817 96.8794 69.3697C94.378 65.7564 90.262 63.6417 86.21 61.943C81.2687 59.8697 76.1607 58.195 70.9514 56.939" class="fill-orange"></path><path d="M50.5633 55.0548C48.4246 50.4828 45.4033 47.4254 40.7366 45.5054C40.5126 45.4134 40.2819 45.3241 40.0406 45.3188C39.7593 45.3148 39.4859 45.4268 39.2486 45.5774C38.2139 46.2388 37.8246 47.6241 38.0299 48.8348C38.2353 50.0454 38.9259 51.1161 39.6673 52.0961C42.4419 55.7708 45.8393 59.6068 50.0393 61.4961C51.1833 59.9174 51.4033 56.8148 50.5633 55.0548C49.7233 53.2948 48.2526 51.9228 46.7353 50.7001C44.5259 48.9188 42.1419 47.3561 39.6286 46.0401C39.4379 45.9401 39.2339 45.8388 39.0179 45.8494C38.6339 45.8694 38.3659 46.2214 38.1539 46.5414C37.3246 47.7881 36.4673 49.1201 36.4113 50.6161C36.3339 52.6441 37.7393 54.4094 39.1846 55.8361C41.2659 57.8921 43.5979 59.6948 46.1126 61.1921C47.3339 61.9188 49.0499 62.5174 50.0393 61.4961" class="fill-pale-pink"></path><path d="M82.9203 66.7731C80.5256 64.0865 76.1923 63.3838 73.0723 65.1758C72.343 65.5945 71.623 66.2411 71.595 67.0798C71.5736 67.6838 71.9216 68.2371 72.3016 68.7065C74.8003 71.7998 79.4056 72.9771 83.0816 71.4625C84.515 70.8731 85.9643 69.3651 85.303 67.9638C85.0656 67.4598 84.5976 67.1065 84.131 66.8025C80.583 64.4958 75.943 63.9598 71.963 65.3985C70.9523 65.7638 69.879 66.3718 69.6203 67.4145C69.327 68.5971 70.219 69.7371 71.155 70.5185C73.583 72.5451 76.7963 73.6505 79.9483 73.3838C83.099 73.1171 83.5323 70.5838 85.303 67.9638" class="fill-light-orange"></path><path d="M97.611 5.01825C97.0857 3.84492 84.4283 8.35826 77.8363 10.0289C72.8257 11.2983 67.7323 12.6036 63.711 15.2476C59.735 17.8609 57.019 21.6449 54.3617 25.3716C52.6843 27.7236 51.007 30.0756 49.3297 32.4289C47.5737 34.8903 45.807 37.3729 44.7177 40.2063C43.5523 43.2383 43.1923 46.5929 42.8403 49.9196C42.7483 50.7903 43.2003 52.1783 44.1803 52.0929C44.667 52.0503 44.8737 51.6049 45.0137 51.2063C47.159 45.0876 48.7057 38.6809 51.6683 32.9623C58.7257 19.3396 74.063 9.67159 92.0457 8.72225C93.055 8.66892 94.1043 8.63159 94.919 8.21692C95.7337 7.80092 96.507 7.21159 95.8043 6.72225C95.1017 6.23292 82.851 9.13559 76.5817 10.7623C72.4097 11.8449 68.2043 12.9756 64.719 15.0436C62.443 16.3943 60.519 18.1209 58.6617 19.8849C51.867 26.3343 48.739 36.2516 43.475 43.8383C42.5963 45.1036 41.7177 46.4636 41.7937 48.0996C41.847 49.2636 42.5723 50.5929 43.6603 51.3916C43.8763 51.5489 48.395 29.8863 61.3523 19.8076C68.6577 14.1249 78.7657 11.2089 86.3417 8.86359C92.8977 6.83292 98.1363 6.19159 97.611 5.01825Z" class="fill-dark-brown"></path><path d="M94.9235 5.28707C94.6382 6.20041 88.9342 9.71374 85.0049 15.6177C80.9369 21.7271 78.6195 30.3044 77.0902 35.7244C72.7809 50.9991 79.0302 68.3297 76.6769 69.0684C74.3235 69.8071 72.1862 48.6177 74.2755 39.2311C76.4142 29.6257 80.8035 20.9284 85.2195 12.3337C86.6022 9.64441 94.9289 5.3444 95.3809 6.4084C95.5422 6.78974 95.5022 6.56707 90.9995 10.3564C84.2235 16.7311 84.4929 18.6977 83.3315 20.7884C81.1809 24.6617 69.1102 60.6897 79.4609 68.0484C80.0155 68.4431 80.0062 69.3497 79.8449 69.9244C79.5195 71.0857 77.4982 71.0404 76.2755 70.1311C75.0529 69.2204 74.4822 67.8431 74.0542 66.5617C72.7915 62.7724 72.1275 58.9457 71.9595 55.2031C71.4702 44.2484 75.1915 34.3231 78.8742 24.6351C80.0129 21.6377 81.1595 18.6257 82.8649 15.9297C85.6982 11.4551 95.5035 3.42841 94.9235 5.28707Z" class="fill-dark-brown"></path><path d="M90.186 4.91528C90.606 3.75928 90.714 3.03928 92.1394 2.77261C93.5647 2.50728 95.8554 2.18861 96.7514 2.70594C97.6474 3.22328 97.4994 5.13128 97.874 6.34461C98.078 7.00461 98.2767 7.72194 97.9554 8.21261C97.7727 8.49128 97.4407 8.66061 97.1047 8.80861C95.3647 9.57394 93.282 9.93261 91.0594 9.84861C90.8487 9.84061 90.6127 9.81928 90.4247 9.68194C90.2034 9.51928 90.1514 9.27128 90.1234 9.05928C89.9634 7.85394 89.8407 6.65528 89.7554 5.46461C89.742 5.27794 89.7314 5.08328 89.8167 4.93394C89.934 4.73394 90.2047 4.65128 90.4634 4.58061C92.1674 4.11661 93.9514 3.77261 95.7967 3.54861C96.1327 3.50861 96.5167 3.48194 96.862 3.67794C97.3234 3.93928 97.4607 4.43394 97.5327 4.84461C97.678 5.66461 97.8234 6.48328 97.9687 7.30328C97.9887 7.41528 98.006 7.53928 97.9327 7.61128C97.874 7.66728 97.7727 7.67928 97.6767 7.68994C95.8474 7.88861 94.0167 8.08728 92.1874 8.28594C92.1114 8.29394 92.0287 8.30194 91.9487 8.26328C91.8487 8.21528 91.7927 8.11794 91.75 8.02994L90.186 4.91528Z" class="fill-dark-brown"></path><path d="M88.7263 76.9822C81.2836 75.3942 73.4943 74.6369 65.8983 75.0996C65.2343 75.1396 64.5263 75.1969 64.001 75.6049C62.8676 76.4862 63.329 78.3449 64.253 79.4436C66.297 81.8756 69.7023 82.5822 72.853 82.9956C78.9436 83.7956 85.4356 83.9889 90.9076 81.1956C91.5343 80.8756 92.2103 80.4182 92.2836 79.7182C92.3743 78.8529 91.5076 78.2249 90.749 77.7956C89.1023 76.8636 87.429 75.9209 85.589 75.4849C83.889 75.0809 82.1196 75.1262 80.3743 75.1742C74.5196 75.3342 68.665 75.4942 62.8103 75.6542" class="fill-light-orange"></path><path d="M94.1177 7.608C91.8017 10.672 89.4217 13.9133 89.3123 17.9307C89.2523 20.1853 89.9203 22.5493 90.7577 24.8573C95.0963 36.8147 111.698 61.66 112.547 58.5373C113.396 55.4133 114.434 41.492 112.584 32.592C112.02 29.88 110.887 27.18 109.67 24.516C108.126 21.1373 106.406 17.736 103.846 14.7187C101.558 12.0227 98.631 9.69333 95.3923 7.99333C90.9657 11.6213 90.1737 17.9547 91.5177 23.9853C92.8617 30.016 96.063 35.928 98.915 41.82C101.231 46.608 103.895 52.008 109.135 54.536C110.862 52.8427 110.771 50.0813 110.566 47.5333C110.143 42.2547 109.555 36.9547 108.806 31.6413C108.375 28.5987 107.874 25.4933 106.394 22.516C104.462 18.6293 101.027 15.2747 97.6777 12.0347" class="fill-bright-green"></path><path d="M96.2188 11.0778C94.6562 14.1418 95.5682 18.1205 96.6068 21.8311C98.2388 27.6658 100.135 33.4925 102.288 39.2911C102.664 40.3045 103.263 42.1365 104.052 42.1365C104.843 42.1365 102.658 35.8725 101.539 32.7458C98.8655 25.2765 97.6948 10.7245 96.7882 10.2925" class="fill-pale-green"></path></svg>