<svg role="h1" viewBox="0 0 724 148" class="fill-dark-brown" xmlns="http://www.w3.org/2000/svg"><title>Rifflandia 2023</title><path d="M10.392 110.428C5.96672 110.179 2.95871 109.808 1.36804 109.309C1.16671 108.712 1.07072 108.019 1.07072 107.221C3.05739 106.624 4.57603 105.655 5.61869 104.312C6.66269 102.969 7.4587 100.385 8.00537 96.556C8.5507 92.7293 8.8267 86.8866 8.8267 79.0306V36.6692C8.8267 27.0266 8.15469 20.288 6.81335 16.4586C5.47069 12.632 3.20806 10.2693 0.0253906 9.37465C0.0253906 8.47998 0.0746921 7.88263 0.176025 7.58396C2.75869 6.59063 9.02406 5.54663 18.9681 4.45196C28.7134 3.6573 36.6187 3.2586 42.684 3.2586C58.8907 3.2586 70.5254 5.62272 77.5867 10.3441C84.6467 15.0681 88.1774 22.3014 88.1774 32.0454C88.1774 39.1081 86.5121 45.0227 83.1801 49.796C79.8481 54.568 75.3987 58.1986 69.832 60.6839C73.8067 68.8386 77.5867 75.7493 81.1667 81.4173C85.4414 88.3786 89.6694 94.1693 93.8454 98.7933C98.0214 103.417 101.849 106.128 105.329 106.923C105.329 107.421 105.231 108.067 105.032 108.861C99.6614 110.551 93.3467 111.397 86.0894 111.397C72.464 111.397 61.6774 104.387 53.7214 90.3654C49.9427 83.6054 46.512 74.9534 43.4294 64.4134C42.732 61.9281 42.2854 60.188 42.0867 59.192H43.132C46.0147 59.192 48.3267 58.4973 50.068 57.104C51.8067 55.7133 53.1267 53.128 54.0214 49.348C54.916 45.5706 55.3627 40.1999 55.3627 33.2386C55.3627 26.5773 54.916 21.4813 54.0214 17.9507C53.1267 14.4227 51.8574 11.9839 50.216 10.6413C48.576 9.29992 46.4134 8.62791 43.7294 8.62791C42.4347 8.62791 41.044 8.77732 39.552 9.07599V79.0306C39.552 86.8866 39.824 92.7293 40.3734 96.556C40.9174 100.385 41.716 102.969 42.7587 104.312C43.8027 105.655 45.3694 106.624 47.4574 107.221C47.4574 108.019 47.3587 108.712 47.1587 109.309C45.5667 109.808 42.5347 110.179 38.0601 110.428C33.5867 110.675 29.656 110.8 26.276 110.8H22.1001C18.7187 110.8 14.816 110.675 10.392 110.428Z"></path><path d="M113.608 24.216C110.476 21.78 108.908 18.5734 108.908 14.5947C108.908 10.8174 110.476 7.76002 113.608 5.42269C116.74 3.08669 120.79 1.91731 125.764 1.91731C130.734 1.91731 134.736 3.08669 137.772 5.42269C140.804 7.76002 142.321 10.8174 142.321 14.5947C142.321 18.5734 140.804 21.78 137.772 24.216C134.736 26.6533 130.734 27.8706 125.764 27.8706C120.79 27.8706 116.74 26.6533 113.608 24.216ZM104.584 109.311C104.382 108.913 104.285 108.367 104.285 107.669C106.672 106.975 108.336 105.856 109.281 104.313C110.226 102.773 110.848 100.337 111.146 97.0054C111.445 93.6747 111.594 88.2294 111.594 80.672V73.6613C111.594 64.812 111.445 58.2747 111.146 54.0467C110.848 49.8227 110.226 46.8387 109.281 45.0973C108.336 43.3587 106.918 42.4387 105.032 42.3387C104.932 41.9414 104.881 41.3946 104.881 40.6973C107.466 38.5119 111.469 36.4987 116.889 34.6574C122.308 32.8187 127.652 31.8973 132.924 31.8973C135.806 31.8973 138.293 32.2467 140.381 32.9414C139.882 38.6094 139.634 44.7253 139.634 51.2879V80.672C139.634 88.2294 139.785 93.6747 140.082 97.0054C140.381 100.337 141.001 102.773 141.948 104.313C142.89 105.856 144.558 106.975 146.945 107.669C146.945 108.367 146.844 108.913 146.645 109.311C142.566 110.303 136.004 110.801 126.957 110.801H124.272C115.222 110.801 108.661 110.303 104.584 109.311Z"></path><path d="M165.513 31.0026C167.053 32.2959 169.216 33.2907 172.003 33.9853H209.143C204.369 31.8973 201.435 28.268 200.343 23.0973C194.673 22.3027 190.024 21.7066 186.395 21.3066C182.764 20.9106 178.912 20.7106 174.836 20.7106C170.559 20.7106 167.551 21.2093 165.813 22.2013C164.071 23.1973 163.203 24.64 163.203 26.528C163.203 28.2187 163.972 29.7106 165.513 31.0026ZM150.373 109.309C150.175 108.913 150.076 108.367 150.076 107.669C152.361 106.975 154.003 105.856 154.997 104.313C155.991 102.773 156.639 100.311 156.937 96.9294C157.235 93.5507 157.384 88.1294 157.384 80.672V45.0226C157.384 42.14 157.284 39.604 157.087 37.416C155.196 36.7213 152.064 36.1734 147.689 35.7747C147.689 34.9801 147.839 34.384 148.137 33.9853H163.203C160.219 32.6947 157.856 30.7293 156.116 28.0933C154.376 25.4599 153.505 22.4027 153.505 18.9214C153.505 13.8494 155.719 9.57459 160.144 6.09326C164.567 2.61326 170.907 0.872067 179.161 0.872067C189.204 0.872067 199.247 2.26665 209.291 5.04931C213.964 2.56531 219.931 1.31998 227.191 1.31998C231.069 1.31998 234.747 1.49594 238.227 1.84261C241.707 2.19194 246.132 2.71337 251.503 3.40804C256.672 4.10537 261.123 4.62661 264.852 4.97461C268.58 5.32394 272.483 5.49593 276.561 5.49593C277.057 5.79459 277.356 6.2427 277.456 6.8387C276.859 12.208 276.561 17.3799 276.561 22.3506V80.672C276.561 88.1294 276.709 93.5507 277.009 96.9294C277.307 100.311 277.952 102.773 278.948 104.313C279.939 105.856 281.581 106.975 283.869 107.669C283.869 108.367 283.769 108.913 283.572 109.309C279.593 110.303 273.031 110.801 263.883 110.801H261.199C252.148 110.801 245.585 110.303 241.509 109.309C241.309 108.913 241.211 108.367 241.211 107.669C243.597 106.975 245.261 105.856 246.207 104.313C247.151 102.773 247.775 100.337 248.072 97.0041C248.369 93.6747 248.519 88.2294 248.519 80.672V23.0973C238.377 21.0093 229.228 19.964 221.075 19.964C216.996 19.964 213.964 20.5614 211.976 21.7547C209.985 22.9481 208.992 24.4907 208.992 26.3787C208.992 28.1681 209.788 29.7106 211.38 31.0026C212.969 32.2959 215.259 33.2907 218.24 33.9853H243.001C243.199 34.484 243.199 35.0293 243.001 35.6266C238.227 35.924 234.499 36.5213 231.813 37.416C231.612 38.5107 231.516 41.0466 231.516 45.0226V80.672C231.516 88.1294 231.688 93.5507 232.037 96.9294C232.385 100.311 233.131 102.773 234.275 104.313C235.417 105.856 237.332 106.975 240.017 107.669C240.017 108.467 239.869 109.012 239.569 109.309C235.293 110.303 227.685 110.801 216.748 110.801C207.301 110.801 200.588 110.303 196.613 109.309C196.412 108.913 196.313 108.367 196.313 107.669C198.601 106.975 200.241 105.856 201.237 104.313C202.229 102.773 202.877 100.311 203.176 96.9294C203.475 93.5507 203.624 88.1294 203.624 80.672V45.0226C203.624 42.14 203.523 39.604 203.324 37.416H185.575C185.375 38.6093 185.276 41.1453 185.276 45.0226V80.672C185.276 88.2294 185.475 93.6747 185.873 97.0041C186.269 100.337 187.116 102.773 188.408 104.313C189.701 105.856 191.84 106.975 194.824 107.669C194.824 108.467 194.673 109.012 194.376 109.309C189.104 110.303 181.151 110.801 170.511 110.801C161.061 110.801 154.351 110.303 150.373 109.309Z"></path><path d="M311.999 92.7533C313.242 94.8413 315.207 95.8853 317.891 95.8853C319.482 95.8853 321.072 95.5386 322.664 94.8413V92.9027V80.224C322.664 77.1426 322.218 74.5813 321.322 72.5426C320.427 70.5053 319.034 69.4854 317.146 69.4854C315.056 69.4854 313.366 70.6026 312.075 72.8413C310.78 75.0786 310.135 78.4333 310.135 82.9093C310.135 87.384 310.755 90.6653 311.999 92.7533ZM327.886 107.669C325.199 104.885 323.559 101.504 322.962 97.5254C320.278 101.703 317.194 105.159 313.715 107.893C310.234 110.627 305.959 111.995 300.888 111.995C295.219 111.995 290.819 110.079 287.687 106.252C284.554 102.425 282.988 97.5773 282.988 91.7093C282.988 82.264 286.643 75.8493 293.951 72.4679C301.259 69.0879 310.828 67.1986 322.664 66.8V52.332C322.664 45.8694 322.067 41.3947 320.875 38.908C319.68 36.4227 318.04 35.1787 315.952 35.1787C313.864 35.1787 312.171 36.472 310.88 39.0573C309.587 41.644 308.942 45.2241 308.942 49.7961C308.942 53.6747 309.188 57.1041 309.688 60.0881C306.704 62.1761 303.671 63.8159 300.588 65.0093C297.504 66.2026 294.026 67 290.148 67.396C288.158 64.1147 287.164 60.5347 287.164 56.6574C287.164 52.2827 288.631 48.1814 291.564 44.352C294.496 40.524 298.823 37.4413 304.542 35.104C310.259 32.7693 317.146 31.5986 325.199 31.5986C332.558 31.5986 338.076 32.668 341.756 34.8053C345.434 36.9453 347.82 39.8294 348.915 43.4574C350.01 47.088 350.556 51.8839 350.556 57.8506V85.7427C350.556 87.9307 350.904 89.6467 351.602 90.8893C352.295 92.1333 353.29 92.7533 354.583 92.7533C355.874 92.7533 356.944 92.1333 357.791 90.8893C358.635 89.6467 359.107 87.8307 359.207 85.444H359.804C360.498 85.444 360.996 85.5933 361.296 85.8919C361.395 93.7479 359.827 100.039 356.596 104.76C353.366 109.485 348.218 111.845 341.159 111.845C334.992 111.845 330.57 110.452 327.886 107.669Z"></path><path d="M360.429 109.309C360.228 108.913 360.129 108.365 360.129 107.668C362.516 106.973 364.18 105.855 365.126 104.312C366.072 102.772 366.693 100.336 366.992 97.004C367.29 93.6734 367.44 88.2294 367.44 80.6707V73.66C367.44 64.8106 367.29 58.2747 366.992 54.0454C366.693 49.8214 366.072 46.8373 365.126 45.0973C364.18 43.3586 362.764 42.4374 360.877 42.3374C360.777 41.9414 360.726 41.3932 360.726 40.6972C363.312 38.5106 367.314 36.4972 372.734 34.6559C378.153 32.8172 383.496 31.8973 388.769 31.8973C391.652 31.8973 394.137 32.2466 396.226 32.9399C395.928 36.5199 395.678 40.7974 395.48 45.768C404.528 36.3227 413.38 31.5986 422.03 31.5986C427.698 31.5986 431.774 33.2386 434.261 36.52C436.746 39.8026 437.99 44.676 437.99 51.1373V80.6707C437.99 88.1294 438.14 93.5493 438.438 96.9293C438.736 100.311 439.381 102.772 440.377 104.312C441.37 105.855 443.01 106.973 445.298 107.668C445.298 108.365 445.198 108.913 445.001 109.309C441.022 110.301 434.46 110.8 425.312 110.8H420.09C412.932 110.8 407.712 110.301 404.43 109.309C404.23 108.913 404.132 108.365 404.132 107.668C406.02 106.973 407.362 105.855 408.158 104.312C408.954 102.772 409.476 100.336 409.725 97.004C409.973 93.6734 410.098 88.2294 410.098 80.6707V58.596C410.098 54.9173 409.476 52.2333 408.233 50.5413C406.989 48.852 404.877 48.0053 401.894 48.0053C399.706 48.0053 397.569 48.304 395.48 48.9013V51.2866V80.6707C395.48 88.2294 395.604 93.6734 395.853 97.004C396.101 100.336 396.722 102.772 397.718 104.312C398.71 105.855 400.301 106.973 402.49 107.668C402.49 108.365 402.39 108.913 402.193 109.309C398.314 110.301 391.949 110.8 383.101 110.8H380.117C371.066 110.8 364.505 110.301 360.429 109.309Z"></path><path d="M473.721 83.8027C474.416 87.6827 475.634 90.5414 477.376 92.3787C479.114 94.2214 481.574 95.1387 484.758 95.1387C485.953 95.1387 487.294 94.9413 488.786 94.5439V94.096V54.7173C488.786 48.1546 488.212 43.332 487.07 40.2506C485.926 37.168 484.21 35.6253 481.924 35.6253C478.942 35.6253 476.653 38.1373 475.064 43.1587C473.472 48.18 472.677 56.4093 472.677 67.8426C472.677 74.6079 473.024 79.9267 473.721 83.8027ZM449.932 102.075C445.704 95.564 443.592 86.6372 443.592 75.3012C443.592 61.3799 446.8 50.6146 453.213 43.008C459.626 35.4026 468.997 31.5973 481.329 31.5973C483.812 31.5973 486.25 31.896 488.637 32.4933C488.436 25.3333 487.892 20.4853 486.996 17.952C486.101 15.416 484.509 14.0479 482.224 13.8493C482.124 13.4533 482.074 12.9546 482.074 12.3572C484.658 10.1719 488.661 8.13335 494.081 6.24135C499.5 4.35335 504.844 3.40671 510.116 3.40671C513.196 3.40671 515.682 3.80658 517.574 4.59991C517.074 9.67324 516.777 15.7879 516.678 22.9466V70.0814C516.678 78.3374 516.85 84.6241 517.2 88.9481C517.548 93.2761 518.22 96.4067 519.214 98.3454C520.206 100.285 521.698 101.305 523.689 101.404C523.786 101.803 523.837 102.351 523.837 103.045C521.153 105.232 517.074 107.223 511.608 109.011C506.137 110.801 500.766 111.696 495.498 111.696C492.314 111.696 489.78 111.296 487.892 110.501C488.288 106.923 488.585 102.596 488.786 97.5254C485.505 102.3 482.172 105.879 478.792 108.264C475.41 110.651 471.433 111.844 466.86 111.844C459.798 111.844 454.156 108.589 449.932 102.075Z"></path><path d="M533.188 24.216C530.056 21.78 528.488 18.5734 528.488 14.5947C528.488 10.8174 530.056 7.76002 533.188 5.42269C536.32 3.08669 540.371 1.91731 545.344 1.91731C550.315 1.91731 554.316 3.08669 557.352 5.42269C560.384 7.76002 561.901 10.8174 561.901 14.5947C561.901 18.5734 560.384 21.78 557.352 24.216C554.316 26.6533 550.315 27.8706 545.344 27.8706C540.371 27.8706 536.32 26.6533 533.188 24.216ZM524.164 109.311C523.963 108.913 523.865 108.367 523.865 107.669C526.252 106.975 527.916 105.856 528.861 104.313C529.807 102.773 530.428 100.337 530.727 97.0054C531.025 93.6747 531.175 88.2294 531.175 80.672V73.6613C531.175 64.812 531.025 58.2747 530.727 54.0467C530.428 49.8227 529.807 46.8387 528.861 45.0973C527.916 43.3587 526.499 42.4387 524.612 42.3387C524.512 41.9414 524.461 41.3946 524.461 40.6973C527.047 38.5119 531.049 36.4987 536.469 34.6574C541.888 32.8187 547.232 31.8973 552.504 31.8973C555.387 31.8973 557.873 32.2467 559.961 32.9414C559.463 38.6094 559.215 44.7253 559.215 51.2879V80.672C559.215 88.2294 559.365 93.6747 559.663 97.0054C559.961 100.337 560.581 102.773 561.528 104.313C562.471 105.856 564.139 106.975 566.525 107.669C566.525 108.367 566.424 108.913 566.225 109.311C562.147 110.303 555.584 110.801 546.537 110.801H543.852C534.803 110.801 528.241 110.303 524.164 109.311Z"></path><path d="M595.544 92.7533C596.787 94.8413 598.752 95.8853 601.436 95.8853C603.027 95.8853 604.617 95.5386 606.209 94.8413V92.9027V80.224C606.209 77.1426 605.763 74.5813 604.867 72.5426C603.972 70.5053 602.579 69.4854 600.691 69.4854C598.601 69.4854 596.911 70.6026 595.62 72.8413C594.325 75.0786 593.68 78.4333 593.68 82.9093C593.68 87.384 594.3 90.6653 595.544 92.7533ZM611.431 107.669C608.744 104.885 607.104 101.504 606.507 97.5254C603.823 101.703 600.739 105.159 597.26 107.893C593.779 110.627 589.504 111.995 584.433 111.995C578.764 111.995 574.364 110.079 571.232 106.252C568.099 102.425 566.533 97.5773 566.533 91.7093C566.533 82.264 570.188 75.8493 577.496 72.4679C584.804 69.0879 594.373 67.1986 606.209 66.8V52.332C606.209 45.8694 605.612 41.3947 604.42 38.908C603.225 36.4227 601.585 35.1787 599.497 35.1787C597.409 35.1787 595.716 36.472 594.425 39.0573C593.132 41.644 592.487 45.2241 592.487 49.7961C592.487 53.6747 592.733 57.1041 593.233 60.0881C590.249 62.1761 587.216 63.8159 584.133 65.0093C581.049 66.2026 577.571 67 573.693 67.396C571.703 64.1147 570.709 60.5347 570.709 56.6574C570.709 52.2827 572.176 48.1814 575.109 44.352C578.041 40.524 582.368 37.4413 588.087 35.104C593.804 32.7693 600.691 31.5986 608.744 31.5986C616.103 31.5986 621.621 32.668 625.301 34.8053C628.979 36.9453 631.365 39.8294 632.46 43.4574C633.555 47.088 634.101 51.8839 634.101 57.8506V85.7427C634.101 87.9307 634.449 89.6467 635.147 90.8893C635.84 92.1333 636.835 92.7533 638.128 92.7533C639.419 92.7533 640.489 92.1333 641.336 90.8893C642.179 89.6467 642.652 87.8307 642.752 85.444H643.349C644.043 85.444 644.541 85.5933 644.841 85.8919C644.94 93.7479 643.372 100.039 640.141 104.76C636.911 109.485 631.763 111.845 624.704 111.845C618.537 111.845 614.115 110.452 611.431 107.669Z"></path><path d="M677.065 108.375H661.002C660.331 107.591 659.763 106.808 659.607 105.397C669.059 93.9093 674.069 86.7026 674.069 77.1972C674.069 75.5266 673.501 73.0719 671.693 73.0719C669.473 73.0719 667.613 76.884 664.825 86.5973C664.618 86.7026 664.307 86.7547 664.153 86.7547C662.19 83.5693 661.209 77.772 661.415 72.6027C664.463 72.8627 669.421 71.0346 673.759 71.0346C682.023 71.0346 686.929 74.1693 686.929 80.1227C686.929 89.052 678.821 94.536 666.683 99.8107L676.238 99.1839C682.074 98.8172 684.811 97.4079 687.033 91.1412C687.291 91.1412 687.446 91.1412 687.705 91.2452C687.962 96.2066 687.705 103.413 686.671 109.211C684.554 108.792 680.835 108.375 677.065 108.375Z"></path><path d="M692.199 101.847C692.199 100.228 692.458 98.8693 692.819 97.5639C696.434 96.0493 699.895 95.4759 704.646 96.0493C704.233 98.1386 704.026 99.34 704.026 101.847C704.026 105.659 704.491 106.547 705.37 106.547C706.454 106.547 707.126 104.876 707.126 98.0865C707.126 94.2225 706.97 90.4093 703.046 90.4093C702.063 90.4093 701.29 90.4093 699.998 90.6186C699.739 90.4093 699.637 90.1492 699.585 89.9399C705.111 88.6346 707.694 85.7626 708.417 80.8533L705.731 80.9573C698.862 81.2186 697.519 81.2707 696.177 86.5454C695.815 86.6494 695.557 86.5454 695.35 86.4414C694.885 79.3907 695.143 75.004 696.073 70.8266C698.603 71.6093 702.374 71.8186 710.793 71.8186H719.675C720.295 72.3413 720.813 72.9679 721.225 73.8546C719.314 82.0546 712.394 86.4933 704.802 89C708.21 88.4253 708.571 88.4253 709.605 88.4253C717.817 88.4253 721.742 92.3946 721.742 97.5639C721.742 105.764 714.873 109.157 705.007 109.157C697.002 109.157 692.199 106.808 692.199 101.847Z"></path><path d="M675.205 65.7799H659.143C658.472 64.9959 657.904 64.2133 657.748 62.804C667.2 51.3147 672.209 44.108 672.209 34.6027C672.209 32.932 671.641 30.4774 669.833 30.4774C667.613 30.4774 665.753 34.2892 662.965 44.0026C662.759 44.1079 662.448 44.16 662.293 44.16C660.331 40.9746 659.349 35.1773 659.556 30.008C662.604 30.268 667.561 28.4399 671.9 28.4399C680.164 28.4399 685.069 31.5746 685.069 37.528C685.069 46.4573 676.961 51.9413 664.824 57.216L674.379 56.5893C680.215 56.2227 682.952 54.8134 685.173 48.5467C685.432 48.5467 685.587 48.5467 685.844 48.6507C686.103 53.612 685.844 60.8187 684.812 66.616C682.695 66.1974 678.976 65.7799 675.205 65.7799Z"></path><path d="M709.087 64.1081C710.429 64.1081 711.049 60.2439 711.049 54.1333C711.049 38.2053 709.602 30.8947 706.865 30.8947C705.265 30.8947 704.645 33.9759 704.645 40.8693C704.645 56.9013 706.091 64.1081 709.087 64.1081ZM691.785 47.4494C691.785 35.6987 697.776 28.5439 708.053 28.5439C717.608 28.5439 723.857 35.4893 723.857 47.5013C723.857 59.0946 717.814 66.4573 707.692 66.4573C698.034 66.4573 691.785 59.408 691.785 47.4494Z"></path><path d="M561.436 122.532H561.465H561.406H561.436ZM561.666 138.317L559.329 129.739C557.8 124.136 557.453 123.757 556.818 123.291C556.818 123.057 556.848 122.94 556.877 122.824C557.396 122.62 560.454 122.532 561.436 122.532C562.618 122.532 566.284 122.62 566.918 122.824C566.976 122.94 567.005 123.057 567.005 123.291C566.225 123.757 565.533 124.136 566.918 129.797L568.217 134.961C568.765 137.151 569.082 138.259 569.457 140.185L571.824 129.797C573.006 124.516 572.545 123.816 570.756 123.436C570.756 123.291 570.756 123.144 570.813 122.969C571.42 122.677 573.006 122.62 573.554 122.62H574.362C574.766 122.62 575.921 122.677 576.354 122.969C576.382 123.144 576.382 123.291 576.382 123.436C575.113 123.816 574.652 124.516 573.209 129.739L569.804 142.315C567.697 143.161 565.706 143.511 562.734 143.657C562.734 142.693 562.417 141.06 561.666 138.317Z"></path><path d="M580.975 121.277C583.341 121.277 584.841 122.299 584.841 123.961C584.841 125.625 583.341 126.675 580.975 126.675C578.551 126.675 577.051 125.625 577.051 123.961C577.051 122.299 578.551 121.277 580.975 121.277ZM576.674 143.132C576.646 143.073 576.617 142.928 576.617 142.781C577.368 142.285 577.425 141.731 577.425 136.421V135.371C577.425 130.644 577.194 129.972 576.674 129.739C576.617 129.623 576.617 129.535 576.617 129.447C577.137 128.688 579.993 127.492 582.618 127.492C583.513 127.492 583.976 127.609 584.38 127.755C584.235 129.243 584.177 129.885 584.177 131.869V136.421C584.177 141.731 584.235 142.285 584.985 142.781C584.985 142.928 584.957 143.073 584.928 143.132C584.321 143.336 582.561 143.424 581.495 143.424H580.109C579.041 143.424 577.281 143.336 576.674 143.132Z"></path><path d="M585.564 135.487C585.564 130.672 588.911 127.404 593.471 127.404C595.115 127.404 596.79 127.988 598.664 128.717C598.29 130.993 596.818 134.261 595.404 135.808C595.288 135.808 595.144 135.779 595 135.661C594.076 130.38 593.095 128.133 592.46 128.133C592.028 128.133 591.912 128.629 591.912 129.593C591.912 135.779 593.731 138.2 595.866 138.2C597.164 138.2 597.886 137.588 598.26 136.596C598.404 136.596 598.55 136.625 598.664 136.683C598.78 140.884 596.096 143.628 592.604 143.628C588.219 143.628 585.564 140.272 585.564 135.487Z"></path><path d="M600.254 137.821V128.484C599.879 128.455 599.475 128.455 598.984 128.484C598.984 128.368 598.984 128.105 599.012 127.959C602.388 126.384 604.582 124.691 606.515 122.677C606.746 122.707 606.832 122.736 607.006 122.824V127.872H610.295C610.295 127.988 610.267 128.397 610.238 128.513L609.43 128.543C608.506 128.572 607.93 128.717 607.006 129.156V136.537C607.006 137.88 607.496 138.609 608.622 138.609C609.632 138.609 610.238 137.851 610.439 136.859C610.555 136.859 610.699 136.859 610.815 136.917C610.756 141.44 608.852 143.657 605.534 143.657C601.899 143.657 600.254 141.323 600.254 137.821Z"></path><path d="M620.196 142.607C620.513 142.607 620.716 142.169 620.716 141.556C620.716 135.487 619.589 128.427 618.464 128.427C618.06 128.427 617.945 129.097 617.945 130.089C617.945 135.983 619.1 142.607 620.196 142.607ZM611.424 135.721C611.424 130.732 614.512 127.405 619.735 127.405C624.495 127.405 627.237 130.644 627.237 135.341C627.237 140.301 624.149 143.628 618.927 143.628C614.165 143.628 611.424 140.389 611.424 135.721Z"></path><path d="M627.874 143.132C627.844 143.073 627.816 142.928 627.816 142.781C628.566 142.285 628.624 141.732 628.624 136.421V135.371C628.624 130.644 628.394 129.972 627.874 129.739C627.816 129.623 627.816 129.535 627.816 129.448C628.335 128.689 631.192 127.492 633.818 127.492C634.712 127.492 635.174 127.609 635.578 127.755C635.463 129.009 635.404 129.652 635.376 130.993C636.762 128.368 638.118 127.405 639.444 127.405C639.82 127.405 640.079 127.435 640.282 127.492C640.339 130.031 639.618 133.824 638.926 134.641C638.867 134.7 638.723 134.641 638.636 134.641C637.166 132.569 636.53 131.724 635.694 131.724H635.376V131.869V136.421C635.376 141.732 635.434 142.285 636.358 142.781C636.358 142.928 636.299 143.073 636.271 143.132C635.55 143.336 633.443 143.424 632.144 143.424H631.307C630.24 143.424 628.48 143.336 627.874 143.132Z"></path><path d="M645.133 121.277C647.499 121.277 648.999 122.299 648.999 123.961C648.999 125.625 647.499 126.675 645.133 126.675C642.709 126.675 641.209 125.625 641.209 123.961C641.209 122.299 642.709 121.277 645.133 121.277ZM640.833 143.132C640.805 143.073 640.775 142.928 640.775 142.781C641.526 142.285 641.583 141.731 641.583 136.421V135.371C641.583 130.644 641.353 129.972 640.833 129.739C640.775 129.623 640.775 129.535 640.775 129.447C641.295 128.688 644.151 127.492 646.777 127.492C647.671 127.492 648.134 127.609 648.538 127.755C648.393 129.243 648.335 129.885 648.335 131.869V136.421C648.335 141.731 648.393 142.285 649.143 142.781C649.143 142.928 649.115 143.073 649.086 143.132C648.479 143.336 646.719 143.424 645.653 143.424H644.267C643.199 143.424 641.439 143.336 640.833 143.132Z"></path><path d="M657.225 139.981H657.282V139.836V136.917C657.282 135.78 657.167 135.108 656.619 135.108C656.099 135.108 655.869 135.809 655.869 137.676C655.869 139.66 656.243 139.981 657.225 139.981ZM657.341 140.595C656.33 142.491 655.262 143.628 653.011 143.628C650.674 143.628 649.578 141.791 649.578 139.603C649.578 135.459 652.723 134.641 657.282 134.467V130.849C657.282 128.544 656.85 128.223 656.474 128.223C656.013 128.223 655.725 129.011 655.725 130.907C655.725 131.549 655.839 132.541 655.926 133.067C654.483 133.971 653.157 134.584 651.223 134.817C650.733 134 650.53 133.183 650.53 132.308C650.53 129.944 653.358 127.405 658.955 127.405C663.977 127.405 664.034 129.769 664.034 132.716V138.027C664.034 138.609 664.15 139.019 664.554 139.019C664.958 139.019 665.159 138.756 665.189 137.851C665.362 137.823 665.535 137.851 665.679 137.939C665.709 141.061 664.727 143.628 661.235 143.628C658.235 143.628 657.513 141.907 657.341 140.595Z"></path><path d="M666.665 146.896C668.655 145.875 668.915 144.475 668.915 143.92C668.915 142.285 666.578 142.461 666.578 140.185C666.578 138.317 668.194 137.092 670.07 137.092C672.003 137.092 673.273 138.435 673.273 141.001C673.273 144.387 670.358 146.837 666.809 147.304C666.722 147.217 666.665 147.071 666.665 146.896Z"></path><path d="M691.741 142.519C692.635 142.519 692.923 141.44 692.923 137.531C692.923 133.648 692.375 133.123 691.077 133.123C690.933 133.123 690.759 133.123 690.558 133.152V138.229C690.558 142.023 690.903 142.519 691.741 142.519ZM691.857 131.956C692.405 131.199 692.837 129.535 692.837 126.996C692.837 123.932 692.145 123.407 691.106 123.407C690.962 123.407 690.817 123.407 690.558 123.467V132.104C690.933 132.045 691.394 131.985 691.857 131.956ZM685.71 143.511C685.19 143.481 682.681 143.277 681.987 142.928C681.987 142.84 681.959 142.695 681.959 142.548C682.795 142.053 683.343 140.884 683.343 136.1V130.003C683.343 125.216 682.767 124.049 681.93 123.583C681.901 123.437 681.93 123.291 681.959 123.203C682.594 122.852 685.133 122.591 685.653 122.532C687.586 122.356 689.374 122.3 691.481 122.3C697.338 122.3 699.849 124.08 699.849 127.084C699.849 129.565 698.146 131.403 695.751 132.22C698.753 132.891 700.599 134.728 700.599 137.559C700.599 141.38 697.194 143.657 691.453 143.657C689.029 143.657 687.326 143.629 685.71 143.511Z"></path><path d="M701.152 133.212C701.152 124.867 706.375 122.3 711.079 122.3C714.022 122.3 716.012 123.349 717.772 123.057C718.032 125.392 717.686 129.827 716.446 131.577C716.302 131.607 716.128 131.577 716.071 131.52C714.31 126.793 712.059 123.671 710.415 123.671C709.232 123.671 708.742 125.1 708.742 127.668C708.742 134.263 711.05 137.823 714.339 137.823C715.724 137.823 716.907 137.413 717.975 136.188C718.119 136.188 718.263 136.247 718.35 136.392C717.859 139.952 715.695 143.657 710.415 143.657C705.048 143.657 701.152 139.368 701.152 133.212Z"></path></svg>