<?xml version="1.0" encoding="UTF-8"?>
<svg id="Layer_1" data-name="Layer 1" xmlns="http://www.w3.org/2000/svg" viewBox="0 0 1529.59 926.58">
  <defs>
    <style>
      .cls-1 {
        fill: #f89920;
        fill-rule: evenodd;
        stroke-width: 0px;
      }
    </style>
  </defs>
  <path class="cls-1" d="m21.79,49.74c-2.91-6.64,15.82-17.09,16.18-10.86.15,2.59-12.97,18.18-16.18,10.86m20.69,236.75c-4.31.6-15.05-5.19-11.54-11.67.95-1.74,9.94-10.23,12.28-12.89,10.44-11.88,18.55-11.8,28.64.78,3.48,4.35,7.37,10.71,9.9,16.36,5.44,12.18,1.31,13.74-5.99,15.16-5.77,1.13-12.84,2.78-18.45-.11-7.65-3.93.85-9.85-14.84-7.65Zm1.99-204.95c-1.79-14.38,17.4-27.77,16.78-20.64-.21,2.49-15.65,29.7-16.78,20.64Zm7.12,18.39c3.74,1.21,26.52,37.25,30.37,43.73,5.03,8.47,8.8,18.68,9.63,30.26.78,10.83-1.52,26.15-8.88,30.82-13.65,8.65-28.22-22.28-32.34-38.31-3.39-13.18-5.03-21.68-5.85-35.96-.3-5.13-1.32-15.81-.75-20.34.63-4.98,4.1-11.4,7.83-10.2Zm14.28,203.35c2.63.88,15.76,19.78,17.72,23.79,2.81,5.74,4.31,9.09,6.71,15.2,1.14,2.9,1.59,7.09-.76,8.93-2.77,2.17-4.53,0-7.08-.57-5.33-1.19-7.35-3.14-12-6.83-5.57-4.42-5.09-5.46-9.07-11.66-2.82-4.4-5.4-11.69-4.83-17.96.61-6.64,4.87-12.39,9.3-10.9Zm.62-205.57c-10.09,2.65-9.17-32.53,9.94-32.43,19.36.1-8.16,31.97-9.94,32.43Zm21.53,203.39c14.26,1.75,7.53,2.04,15.86,13.12,4.53,6.02,7.96,12.36,11.29,19.9,2.57,5.82,5.61,19.95,6.64,26.94.83,5.6,2.39,28.72-5.31,24.43-8.29-4.62-18.23-30.35-20.78-42.6-1.94-9.3-4.11-16.77-8.61-23.96-4.09-6.55-10.24-19.19.91-17.82Zm23.19,148.97c-6.95-5.23-6.13-28.45-4.24-37.7,1.92-9.4,9.64-25.9,17.14-18.11,14.42,14.99.43,65.84-12.9,55.81Zm19.88,76.75c-3.92.91-46.45-19.66-51.17-21.54-5.67-2.26-18.63-4.2-16.22-16.84,1.36-22.15,50.41-23.54,55.22-30.69,3.83-5.7,10.1-17.01,15.1-19.76,9.18-5.05,10.5,14.51,10.41,24.13-.13,13.21-2.03,62.09-13.33,64.71ZM90.88,119.39c1.46,8.79,21.25,23.27,22.66,9.43.89-8.68-24.43-20.16-22.66-9.43ZM21.79,889.61c-2.91,4.95,15.82,12.74,16.18,8.09.15-1.93-12.97-13.55-16.18-8.09Zm20.69-176.42c-4.31-.45-15.05,3.87-11.53,8.69.94,1.29,9.94,7.62,12.28,9.61,10.44,8.85,18.55,8.8,28.64-.58,3.48-3.24,7.37-7.98,9.9-12.19,5.44-9.07,1.31-10.24-5.99-11.3-5.77-.84-12.84-2.07-18.45.08-7.65,2.93.85,7.34-14.84,5.7Zm1.99,152.72c-1.79,10.71,17.4,20.7,16.78,15.38-.21-1.86-15.65-22.13-16.78-15.38Zm7.12-13.71c3.74-.9,26.52-27.76,30.37-32.59,5.03-6.31,8.8-13.92,9.63-22.55.78-8.07-1.52-19.49-8.88-22.96-13.65-6.45-28.22,16.6-32.34,28.55-3.39,9.82-5.02,16.16-5.85,26.8-.3,3.82-1.33,11.78-.75,15.15.63,3.71,4.1,8.49,7.83,7.6Zm14.28-151.53c2.63-.66,15.76-14.74,17.72-17.73,2.81-4.28,4.31-6.78,6.71-11.32,1.14-2.16,1.59-5.29-.76-6.66-2.77-1.62-4.53,0-7.08.42-5.33.88-7.35,2.34-12,5.09-5.57,3.29-5.09,4.07-9.07,8.69-2.82,3.28-5.4,8.71-4.83,13.38.61,4.94,4.87,9.23,9.3,8.13Zm.62,153.18c-10.09-1.97-9.17,24.24,9.94,24.17,19.36-.08-8.16-23.82-9.94-24.17Zm21.53-151.55c14.26-1.3,7.53-1.52,15.86-9.78,4.53-4.49,7.96-9.21,11.29-14.83,2.57-4.34,5.61-14.87,6.64-20.08.83-4.17,2.39-21.4-5.31-18.2-8.29,3.44-18.23,22.62-20.78,31.74-1.94,6.93-4.11,12.5-8.61,17.86-4.09,4.88-10.24,14.3.91,13.28Zm23.19-111c-6.95,3.9-6.13,21.2-4.24,28.09,1.92,7,9.64,19.3,17.14,13.49,14.42-11.17.43-49.06-12.9-41.59Zm19.88-57.19c-3.92-.68-46.45,14.65-51.17,16.05-5.67,1.68-18.63,3.13-16.22,12.55,1.36,16.51,50.42,17.54,55.22,22.87,3.83,4.25,10.1,12.67,15.1,14.72,9.18,3.76,10.5-10.81,10.41-17.98-.13-9.84-2.03-46.26-13.33-48.22Zm-40.21,303.6c1.46-6.55,21.25-17.34,22.66-7.03.89,6.47-24.43,15.02-22.66,7.03Zm-56.32-306.71c-.49-8.73-3.67-14.06-1.09-35.82,1.17-9.92,5.18-22.77,8.83-31.2,4.48-10.34,7.98-16.69,16.27-19.88,6.31-2.42,20.23-4.97,26.48-3.53,5.7,1.31,18.9,3.62,20.67,12.93,2.27,11.91-32.63,7.31-37.9,14.4-14.07,18.95-27.44,16.52-21.35,51.44,1.36,10.16,8.17,6.81,10.02,2.38,4.2-10.94,9.54-10.5,16.68-9.97,3.99.3,36.48,13.12,47.09,19.25-10.6,4.57-43.09,14.12-47.09,14.34-7.14.4-12.48.72-16.68-7.43-1.85-3.3-8.66-5.8-10.02,1.77-6.09,26.03,7.29,24.22,21.35,38.33,5.26,5.28,40.17,1.85,37.9,10.73-1.78,6.93-14.97,8.65-20.67,9.63-6.25,1.07-20.17-.83-26.48-2.63-8.29-2.37-11.79-7.1-16.27-14.81-3.65-6.28-7.66-15.85-8.83-23.25-2.57-16.22.6-20.19,1.09-26.69ZM19.36,30.83c-5.66-1.68-9.43,14.13,0,25.82,1.97,5.22,2.83,10.54.92,19.36-.3,1.36-.6,2.69-.92,3.98-5.66,10.14-4.8,25.42,0,17.04,5.52-15.53.55-29.06,13.99-44.11,4.75-5.32,12.46-10.4,18.15-12.73,10-4.1,15.84.88,5.19,11.33-11.61,11.4-19.37,23.2-25.94,41.67-6.42,18.06-3.69,31.24-11.39,41.13-2.48,2.99-5.78,7.79-6.01,10.77-.33,4.32,5.91,4.97,6.01-.06,1.23-5.55,3.57-10.15,7.71-14.06,10.98-10.4,10.95,4.45,13.71,14.79,5.88,22.02,6.71,37.95,19.56,54.76,11.78,15.42,28.39,14.1,37.31,28.15,9.95,15.66,11.82,39.12,17.13,58.39,1.81,6.59,10.21,25.9-1.51,23.5-6.89-1.41-10.65-12.59-14.46-20.02-8.16-15.92-18.72-28.97-30.57-38.04-17.53-13.42-20.1-8.99-32.51-35.42-7.23-15.4-13.79-26.58-16.37-43.23-1.03-13.25-12.01-4.04,0,21.98,3.01,7.3.86,16.23,2.89,20.35,3.81,7.78,7.33,14.72,13.63,17.92,21.55,10.95.51,30.61-12.77,28.44-1.31-.21-2.55-.54-3.75-.96-7.9-3.71-7.9,6.03,0,13.83,3.04,4.41,2.54,6.57,0,6.96-5.96,1.12-7.07,10.84,0,12.1,6.76.85,12.68-1.13,20.03-.58,11.49.86,9.45,14.81,11.5,28.13,5.74,37.15,43.76,28.48,53.87,54.43,3.52,9.05,7.69,28.85-4.65,25.28-4.65-1.35-16.56-9.63-21.56-12.82-12.65-8.09-30.71-16.63-42.47-26.29-5.92-4.86-11.15-10.42-16.73-15.74-5.13-6.53-9.84,9.12,0,15.76,2.58,2.46,5.27,4.89,8.32,7.38,2.09,1.71,10.04,8.06,11.32,10.01,3.25,4.95-3.28,11.2-5.51,14.5-6.78,10.02-9.22,16.43-12.93,29.41-.08.28-1.41,5.7-1.49,6.02-3.47,8.61-4.65,35.11,1.26,11.14,1.23-5.01,1.46-7.63,3.05-12.75,1.28-4.13,2.25-7.4,3.69-11.55,12.24-35.36,47.22-28.32,66.66-12.96,15.25,12.05,10.95,35.11-5.3,32.19-13.27-2.39-25.01-11.25-37.33,2.74-8.67,9.85-15.04,26.58-17.88,42.22-1.71,9.39-3.15,18.08-4.54,27.6-1.21,8.22-5.04,16.79-4.8,22.39.18,5.2,3.6,10.55,4.8,16.68,1.39,7.1,2.84,13.56,4.54,20.57,2.84,11.65,9.21,24.12,17.88,31.46,12.32,10.43,24.06,3.83,37.33,2.04,16.25-2.18,20.55,15.01,5.3,23.99-19.44,11.44-54.42,16.69-66.66-9.66-1.44-3.1-2.41-5.53-3.69-8.61-1.59-3.82-1.82-5.77-3.05-9.5-3.06-11.13-6.49-5.97-.99,9.54.08.24.16.46.24.66,3.71,9.67,7.12,17.03,13.9,24.5,2.23,2.46,8.75,7.12,5.51,10.81-1.28,1.45-9.23,6.18-11.32,7.46-3.05,1.86-5.75,3.67-8.32,5.5-6.79,4.75-6.93,15.31,0,11.74,5.57-3.97,10.81-8.11,16.73-11.73,11.76-7.2,29.82-13.56,42.47-19.59,4.99-2.38,16.91-8.55,21.56-9.55,12.33-2.67,8.17,12.09,4.65,18.84-10.11,19.34-48.13,12.88-53.87,40.56-2.06,9.93-.01,20.32-11.5,20.97-7.35.41-13.27-1.07-20.03-.43-5.41.79-6.38,7.12,0,9.02,2.54.29,3.04,1.9,0,5.18-4.44,4.27-5.41,11.17,0,10.3,1.19-.31,2.44-.55,3.75-.71,13.28-1.62,34.32,13.03,12.77,21.19-6.3,2.38-9.81,7.56-13.63,13.35-8.63,10.83-13.82,48.06,2.36,17.27,3.08-5.85,6.99-11.38,11.12-17.94,12.41-19.69,14.98-16.39,32.51-26.39,11.85-6.76,22.42-16.48,30.57-28.35,3.81-5.54,7.57-13.87,14.46-14.92,11.72-1.79,3.32,12.61,1.51,17.51-5.31,14.36-7.19,31.84-17.13,43.51-8.92,10.47-25.53,9.49-37.31,20.97-12.85,12.53-13.68,24.4-19.56,40.81-2.76,7.7-2.73,18.77-13.71,11.02-4.13-2.91-6.48-6.34-7.71-10.48-2.08-8.57-11.23,1.85,0,7.98,7.71,7.36,4.98,17.19,11.39,30.65,6.56,13.76,14.33,22.56,25.94,31.05,10.65,7.79,4.8,11.5-5.19,8.45-5.69-1.74-13.41-5.53-18.15-9.49-13.44-11.22-8.47-21.29-13.99-32.87-4.16-10.18-8.04-1.1,0,12.7.31.97.62,1.96.92,2.97,1.92,6.58,1.06,10.54-.92,14.43-5.82,11.82-6.79,20.31,0,19.24,10.07-1.22,13.79,6.1,21.99,12.35,1.69,1.29,4.82,3.13,6.63,4.6,11.8,7.03,21.14,5.43,23.12,0,4.97-13.65,17.11-26.21,30.43-27.09,12.59-.83,24.95,15.43,30.34,27.09,3.71,7.9,9.09,5.13,8.22,0-1.08-5.64-8.13-13.16-10.54-15.8-1.89-2.07-4.5-5.33-6.41-7.02-1.16-1.02-2.57-2.01-3.49-3.3-1.65-2.32-1.61-1.27-3.93-2.57-13.56-7.59-26.06-4.01-36.9,7.06-10.34,10.56-12.09,27.64-29.66,17.11-3.48-2.09-14.25-12.02-6.66-15.34,7.25-3.17,15.14,2.78,22.05,1.52,11.15-2.05-3.69-15.14,8.38-16.46,7.65-.83,14.86-6.53,19.84-6.18,9.34.66,12.67,1.5,21.23-3.79,6.36-3.94,9.11-8.06,14.45-11.73,4.57-3.13,11.33-10.82,17.27-8.66,1.78.65.73,3.95,3.41,4.74,9.43,1.37,7.76-10.28,0-13.34-2.67-.93-5.09-1.43-7.25-1.14-12.87,1.76-23.14,25.73-39.36,27.03-7.82.63-16.42-4.55-20.92-11.71-5.87-9.33-.38-16.75,5.53-23.42,4.9-5.53,12.73-11.68,19.36-13.99,9.68-3.37,15.58,1.62,23.16,7.28,6.57,4.9,12.68,6.42,19.47,4.16,9.84-4.37,5.27-16.37,0-12.29-4.01,1.83-7.3,3.05-9.17,3.17-8.52.55-15.84-6.47-23.55-10.02-7.76-3.57-14.11-8.05-17.14-17.44-2.06-6.37-5.47-24.53-4.26-30.88,1.78-9.32,12.23-15.17,20.14-14.23,9.93,1.18,23.22,24.22,33.98,32.7,5.13,4.8,9.84-1.77,0-10.15-.57-.38-1.14-.82-1.7-1.3-2.68-2.35-13.47-13.39-14.67-16.15-3.96-9.08,8.39-14.41,15.1-13.51.45.06.87.13,1.27.22,5.82,1.03,4.57-9.44,0-15.19-.84-1.68-.7-4.42,0-7.6,7.35-18.36,2.22-24.67,0-17.66-.81,2.21-1.62,4.41-2.46,6.61-4.56,11.94-11.78,33.45-24.27,36.75-2.77.73-8.23-2.04-9.45-5.1-1.53-3.83-.82-9.61.66-13.36,6.32-16.09,18.54-53.39,33.89-57.29.57-.15,1.12-.26,1.64-.36,12.75-3.88,4.99-45.33,0-29.52-1.27,3.76-2.78,7.34-4.12,10.02-2.81,5.62-17.49,37.16-20.93,38.96-3.83,2-3.82-7.87-3.06-10.45,1.16-3.92,3.95-5.75,6.49-8.31,12.79-12.89.74-9.64-.94-17.01-1.02-4.45.26-7.68,1.8-12.16,1.64-4.8,2.07-7.35,2.96-12.32.87-4.88,5.26-18.62,9.68-20.44,3.51-1.44,3.9,8.38,8.12,6.15,7.9-8.06,7.07-30.96,0-43.32-.88-2.66-2.19-3.99-1.84-7.25.12-1.17.88-2.77,1.84-3.84,3.33-3.21,3.6-10.03,0-13.8-1.31-1.84-2.6-3.7-3.7-5.18-5.14-6.94-3.95-10.08-3.81-12.53-.14-3.29-1.33-7.51,3.81-16.82,1.1-1.99,2.39-4.47,3.7-6.95,3.6-6.31,4.99-13.32,0-18.52-.96-1.44-1.72-3.59-1.84-5.16-.34-4.37.96-6.16,1.84-9.73,15.67-29.22,3.88-69.25,0-58.13-1.87,5.76-4.62,10.19-8.12,8.25-4.42-2.43-8.81-20.88-9.68-27.42-.88-6.68-1.31-10.1-2.96-16.54-1.53-6-2.81-10.35-1.8-16.31,1.69-9.89,13.73-5.53.94-22.83-2.54-3.43-5.33-5.89-6.49-11.15-.77-3.46-.77-16.7,3.06-14.02,3.44,2.41,18.12,44.74,20.93,52.28,1.34,3.59,2.85,8.4,4.12,13.44,9.29,24.64,9.01-38.47,0-39.61-.52-.13-1.06-.28-1.64-.48-15.35-5.24-27.57-55.3-33.89-76.89-1.48-5.04-2.19-12.79-.66-17.93,1.22-4.1,6.69-7.83,9.45-6.84,12.49,4.43,19.7,33.3,24.27,49.32.84,3.37,3.6,8.69,7.04,7.07,5.54-2.77,1.8-14.55-4.57-21.9-1.95-3.43-1.54-5.86,0-10.19,5.13-12.2,5.41-21.77,0-20.39-.4.11-.82.21-1.27.29-6.71,1.21-19.06-5.94-15.1-18.13,1.2-3.69,11.99-18.52,14.67-21.67.55-.65,1.12-1.24,1.7-1.75,12-13.28,7.55-21.77,0-13.61-10.75,11.38-24.05,42.3-33.98,43.88-7.91,1.26-18.36-6.59-20.14-19.1-1.21-8.52,2.2-32.89,4.26-41.44,3.03-12.59,9.39-18.61,17.14-23.4,7.71-4.76,15.02-14.19,23.55-13.45,1.87.16,5.17,1.79,9.17,4.25,6.69,3.08,9.78-12.54,0-16.49-6.79-3.04-12.9-1-19.47,5.58-7.59,7.6-13.49,14.29-23.16,9.77-6.63-3.1-14.46-11.36-19.36-18.78-5.91-8.95-11.41-18.91-5.53-31.43,4.5-9.6,13.1-16.55,20.92-15.71,16.22,1.74,26.49,33.91,39.36,36.27,2.16.4,4.58-.28,7.25-1.52,17.15-16.43,1.54-28.4,0-17.91-.61,3.11-1.63,5.49-3.41,6.36-5.95,2.9-12.7-7.42-17.27-11.63-5.34-4.91-8.09-10.45-14.45-15.74-8.55-7.1-11.89-5.98-21.23-5.09-4.98.47-12.19-7.17-19.84-8.29-12.07-1.77,2.77-19.34-8.38-22.09-6.91-1.7-14.8,6.28-22.05,2.03-7.59-4.45,3.18-17.78,6.66-20.59C66.72.03,68.47,22.96,78.81,37.13c10.84,14.85,23.34,19.65,36.9,9.47,2.32-1.74,2.28-.34,3.93-3.45.91-1.73,2.33-3.06,3.49-4.43,1.91-2.27,4.51-6.64,6.41-9.42,2.41-3.55,11.12-15.13,10.54-21.2.18-4.8-5.99-7.89-8.22,0-5.39,15.65-17.75,37.48-30.34,36.36-13.32-1.18-25.45-18.04-30.43-36.36-1.97-7.29-11.32-9.43-23.12,0-1.81,1.96-4.94,4.44-6.63,6.17-8.2,8.39-11.92,18.21-21.99,16.57Z"/>
  <path class="cls-1" d="m1513.19,877.64c2.91,6.64-15.82,17.09-16.18,10.86-.15-2.59,12.97-18.18,16.18-10.86m-20.69-236.75c4.31-.6,15.05,5.19,11.54,11.67-.95,1.74-9.94,10.23-12.28,12.89-10.44,11.88-18.55,11.8-28.64-.78-3.48-4.35-7.37-10.71-9.9-16.36-5.44-12.18-1.31-13.74,5.99-15.16,5.77-1.13,12.84-2.78,18.45.11,7.65,3.93-.85,9.85,14.84,7.65Zm-1.99,204.95c1.79,14.38-17.4,27.77-16.78,20.64.21-2.49,15.65-29.7,16.78-20.64Zm-7.12-18.39c-3.74-1.21-26.52-37.25-30.37-43.73-5.03-8.47-8.8-18.68-9.63-30.26-.78-10.83,1.52-26.15,8.88-30.82,13.65-8.65,28.22,22.28,32.34,38.31,3.39,13.18,5.03,21.68,5.85,35.96.3,5.13,1.32,15.81.75,20.34-.63,4.98-4.1,11.4-7.83,10.2Zm-14.28-203.35c-2.63-.88-15.76-19.78-17.72-23.79-2.81-5.74-4.31-9.09-6.71-15.2-1.14-2.9-1.59-7.09.76-8.93,2.77-2.17,4.53,0,7.08.57,5.33,1.19,7.35,3.14,12,6.83,5.57,4.42,5.09,5.46,9.07,11.66,2.82,4.4,5.4,11.69,4.83,17.96-.61,6.64-4.87,12.39-9.3,10.9Zm-.62,205.57c10.09-2.65,9.17,32.53-9.94,32.43-19.36-.1,8.16-31.97,9.94-32.43Zm-21.53-203.39c-14.26-1.75-7.53-2.04-15.86-13.12-4.53-6.02-7.96-12.36-11.29-19.9-2.57-5.82-5.61-19.95-6.64-26.94-.83-5.6-2.39-28.72,5.31-24.43,8.29,4.62,18.23,30.35,20.78,42.6,1.94,9.3,4.11,16.77,8.61,23.96,4.09,6.55,10.24,19.19-.91,17.82Zm-23.19-148.97c6.95,5.23,6.13,28.45,4.24,37.7-1.92,9.4-9.64,25.9-17.14,18.11-14.42-14.99-.43-65.84,12.9-55.81Zm-19.88-76.75c3.92-.91,46.45,19.66,51.17,21.54,5.67,2.26,18.63,4.2,16.22,16.84-1.36,22.15-50.41,23.54-55.22,30.69-3.83,5.7-10.1,17.01-15.1,19.76-9.18,5.05-10.5-14.51-10.41-24.13.13-13.21,2.03-62.09,13.33-64.71Zm40.21,407.43c-1.46-8.79-21.25-23.27-22.66-9.43-.89,8.68,24.43,20.16,22.66,9.43Zm69.09-770.22c2.91-4.95-15.82-12.74-16.18-8.09-.15,1.93,12.97,13.55,16.18,8.09Zm-20.69,176.42c4.31.45,15.05-3.87,11.53-8.69-.94-1.29-9.94-7.62-12.28-9.61-10.44-8.85-18.55-8.8-28.64.58-3.48,3.24-7.37,7.98-9.9,12.19-5.44,9.07-1.31,10.24,5.99,11.3,5.77.84,12.84,2.07,18.45-.08,7.65-2.93-.85-7.34,14.84-5.7Zm-1.99-152.72c1.79-10.71-17.4-20.7-16.78-15.38.21,1.86,15.65,22.13,16.78,15.38Zm-7.12,13.71c-3.74.9-26.52,27.76-30.37,32.59-5.03,6.31-8.8,13.92-9.63,22.55-.78,8.07,1.52,19.49,8.88,22.96,13.65,6.45,28.22-16.6,32.34-28.55,3.39-9.82,5.02-16.16,5.85-26.8.3-3.82,1.33-11.78.75-15.15-.63-3.71-4.1-8.49-7.83-7.6Zm-14.28,151.53c-2.63.66-15.76,14.74-17.72,17.73-2.81,4.28-4.31,6.78-6.71,11.32-1.14,2.16-1.59,5.29.76,6.66,2.77,1.62,4.53,0,7.08-.42,5.33-.88,7.35-2.34,12-5.09,5.57-3.29,5.09-4.07,9.07-8.69,2.82-3.28,5.4-8.71,4.83-13.38-.61-4.94-4.87-9.23-9.3-8.13Zm-.62-153.18c10.09,1.97,9.17-24.24-9.94-24.17-19.36.08,8.16,23.82,9.94,24.17Zm-21.53,151.55c-14.26,1.3-7.53,1.52-15.86,9.78-4.53,4.49-7.96,9.21-11.29,14.83-2.57,4.34-5.61,14.87-6.64,20.08-.83,4.17-2.39,21.4,5.31,18.2,8.29-3.44,18.23-22.62,20.78-31.74,1.94-6.93,4.11-12.5,8.61-17.86,4.09-4.88,10.24-14.3-.91-13.28Zm-23.19,111c6.95-3.9,6.13-21.2,4.24-28.09-1.92-7-9.64-19.3-17.14-13.49-14.42,11.17-.43,49.06,12.9,41.59Zm-19.88,57.19c3.92.68,46.45-14.65,51.17-16.05,5.67-1.68,18.63-3.13,16.22-12.55-1.36-16.51-50.42-17.54-55.22-22.87-3.83-4.25-10.1-12.67-15.1-14.72-9.18-3.76-10.5,10.81-10.41,17.98.13,9.84,2.03,46.26,13.33,48.22Zm40.21-303.6c-1.46,6.55-21.25,17.34-22.66,7.03-.89-6.47,24.43-15.02,22.66-7.03Zm56.32,306.71c.49,8.73,3.67,14.06,1.09,35.82-1.17,9.92-5.18,22.77-8.83,31.2-4.48,10.34-7.98,16.69-16.27,19.88-6.31,2.42-20.23,4.97-26.48,3.53-5.7-1.31-18.9-3.62-20.67-12.93-2.27-11.91,32.63-7.31,37.9-14.4,14.07-18.95,27.44-16.52,21.35-51.44-1.36-10.16-8.17-6.81-10.02-2.38-4.2,10.94-9.54,10.5-16.68,9.97-3.99-.3-36.48-13.12-47.09-19.25,10.6-4.57,43.09-14.12,47.09-14.34,7.14-.4,12.48-.72,16.68,7.43,1.85,3.3,8.66,5.8,10.02-1.77,6.09-26.03-7.29-24.22-21.35-38.33-5.26-5.28-40.17-1.85-37.9-10.73,1.78-6.93,14.97-8.65,20.67-9.63,6.25-1.07,20.17.83,26.48,2.63,8.29,2.37,11.79,7.1,16.27,14.81,3.65,6.28,7.66,15.85,8.83,23.25,2.57,16.22-.6,20.19-1.09,26.69Zm15.2,500.16c5.66,1.68,9.43-14.13,0-25.82-1.97-5.22-2.83-10.54-.92-19.36.3-1.36.6-2.69.92-3.98,5.66-10.14,4.8-25.42,0-17.04-5.52,15.53-.55,29.06-13.99,44.11-4.75,5.32-12.46,10.4-18.15,12.73-10,4.1-15.84-.88-5.19-11.33,11.61-11.4,19.37-23.2,25.94-41.67,6.42-18.06,3.69-31.24,11.39-41.13,2.48-2.99,5.78-7.79,6.01-10.77.33-4.32-5.91-4.97-6.01.06-1.23,5.55-3.57,10.15-7.71,14.06-10.98,10.4-10.95-4.45-13.71-14.79-5.88-22.02-6.71-37.95-19.56-54.76-11.78-15.42-28.39-14.1-37.31-28.15-9.95-15.66-11.82-39.12-17.13-58.39-1.81-6.59-10.21-25.9,1.51-23.5,6.89,1.41,10.65,12.59,14.46,20.02,8.16,15.92,18.72,28.97,30.57,38.04,17.53,13.42,20.1,8.99,32.51,35.42,7.23,15.4,13.79,26.58,16.37,43.23,1.03,13.25,12.01,4.04,0-21.98-3.01-7.3-.86-16.23-2.89-20.35-3.81-7.78-7.33-14.72-13.63-17.92-21.55-10.95-.51-30.61,12.77-28.44,1.31.21,2.55.54,3.75.96,7.9,3.71,7.9-6.03,0-13.83-3.04-4.41-2.54-6.57,0-6.96,5.96-1.12,7.07-10.84,0-12.1-6.76-.85-12.68,1.13-20.03.58-11.49-.86-9.45-14.81-11.5-28.13-5.74-37.15-43.76-28.48-53.87-54.43-3.52-9.05-7.69-28.85,4.65-25.28,4.65,1.35,16.56,9.63,21.56,12.82,12.65,8.09,30.71,16.63,42.47,26.29,5.92,4.86,11.15,10.42,16.73,15.74,5.13,6.53,9.84-9.12,0-15.76-2.58-2.46-5.27-4.89-8.32-7.38-2.09-1.71-10.04-8.06-11.32-10.01-3.25-4.95,3.28-11.2,5.51-14.5,6.78-10.02,9.22-16.43,12.93-29.41.08-.28,1.41-5.7,1.49-6.02,3.47-8.61,4.65-35.11-1.26-11.14-1.23,5.01-1.46,7.63-3.05,12.75-1.28,4.13-2.25,7.4-3.69,11.55-12.24,35.36-47.22,28.32-66.66,12.96-15.25-12.05-10.95-35.11,5.3-32.19,13.27,2.39,25.01,11.25,37.33-2.74,8.67-9.85,15.04-26.58,17.88-42.22,1.71-9.39,3.15-18.08,4.54-27.6,1.21-8.22,5.04-16.79,4.8-22.39-.18-5.2-3.6-10.55-4.8-16.68-1.39-7.1-2.84-13.56-4.54-20.57-2.84-11.65-9.21-24.12-17.88-31.46-12.32-10.43-24.06-3.83-37.33-2.04-16.25,2.18-20.55-15.01-5.3-23.99,19.44-11.44,54.42-16.69,66.66,9.66,1.44,3.1,2.41,5.53,3.69,8.61,1.59,3.82,1.82,5.77,3.05,9.5,3.06,11.13,6.49,5.97.99-9.54-.08-.24-.16-.46-.24-.66-3.71-9.67-7.12-17.03-13.9-24.5-2.23-2.46-8.75-7.12-5.51-10.81,1.28-1.45,9.23-6.18,11.32-7.46,3.05-1.86,5.75-3.67,8.32-5.5,6.79-4.75,6.93-15.31,0-11.74-5.57,3.97-10.81,8.11-16.73,11.73-11.76,7.2-29.82,13.56-42.47,19.59-4.99,2.38-16.91,8.55-21.56,9.55-12.33,2.67-8.17-12.09-4.65-18.84,10.11-19.34,48.13-12.88,53.87-40.56,2.06-9.93.01-20.32,11.5-20.97,7.35-.41,13.27,1.07,20.03.43,5.41-.79,6.38-7.12,0-9.02-2.54-.29-3.04-1.9,0-5.18,4.44-4.27,5.41-11.17,0-10.3-1.19.31-2.44.55-3.75.71-13.28,1.62-34.32-13.03-12.77-21.19,6.3-2.38,9.81-7.56,13.63-13.35,8.63-10.83,13.82-48.06-2.36-17.27-3.08,5.85-6.99,11.38-11.12,17.94-12.41,19.69-14.98,16.39-32.51,26.39-11.85,6.76-22.42,16.48-30.57,28.35-3.81,5.54-7.57,13.87-14.46,14.92-11.72,1.79-3.32-12.61-1.51-17.51,5.31-14.36,7.19-31.84,17.13-43.51,8.92-10.47,25.53-9.49,37.31-20.97,12.85-12.53,13.68-24.4,19.56-40.81,2.76-7.7,2.73-18.77,13.71-11.02,4.13,2.91,6.48,6.34,7.71,10.48,2.08,8.57,11.23-1.85,0-7.98-7.71-7.36-4.98-17.19-11.39-30.65-6.56-13.76-14.33-22.56-25.94-31.05-10.65-7.79-4.8-11.5,5.19-8.45,5.69,1.74,13.41,5.53,18.15,9.49,13.44,11.22,8.47,21.29,13.99,32.87,4.16,10.18,8.04,1.1,0-12.7-.31-.97-.62-1.96-.92-2.97-1.92-6.58-1.06-10.54.92-14.43,5.82-11.82,6.79-20.31,0-19.24-10.07,1.22-13.79-6.1-21.99-12.35-1.69-1.29-4.82-3.13-6.63-4.6-11.8-7.03-21.14-5.43-23.12,0-4.97,13.65-17.11,26.21-30.43,27.09-12.59.83-24.95-15.43-30.34-27.09-3.71-7.9-9.09-5.13-8.22,0,1.08,5.64,8.13,13.16,10.54,15.8,1.89,2.07,4.5,5.33,6.41,7.02,1.16,1.02,2.57,2.01,3.49,3.3,1.65,2.32,1.61,1.27,3.93,2.57,13.56,7.59,26.06,4.01,36.9-7.06,10.34-10.56,12.09-27.64,29.66-17.11,3.48,2.09,14.25,12.02,6.66,15.34-7.25,3.17-15.14-2.78-22.05-1.52-11.15,2.05,3.69,15.14-8.38,16.46-7.65.83-14.86,6.53-19.84,6.18-9.34-.66-12.67-1.5-21.23,3.79-6.36,3.94-9.11,8.06-14.45,11.73-4.57,3.13-11.33,10.82-17.27,8.66-1.78-.65-.73-3.95-3.41-4.74-9.43-1.37-7.76,10.28,0,13.34,2.67.93,5.09,1.43,7.25,1.14,12.87-1.76,23.14-25.73,39.36-27.03,7.82-.63,16.42,4.55,20.92,11.71,5.87,9.33.38,16.75-5.53,23.42-4.9,5.53-12.73,11.68-19.36,13.99-9.68,3.37-15.58-1.62-23.16-7.28-6.57-4.9-12.68-6.42-19.47-4.16-9.84,4.37-5.27,16.37,0,12.29,4.01-1.83,7.3-3.05,9.17-3.17,8.52-.55,15.84,6.47,23.55,10.02,7.76,3.57,14.11,8.05,17.14,17.44,2.06,6.37,5.47,24.53,4.26,30.88-1.78,9.32-12.23,15.17-20.14,14.23-9.93-1.18-23.22-24.22-33.98-32.7-5.13-4.8-9.84,1.77,0,10.15.57.38,1.14.82,1.7,1.3,2.68,2.35,13.47,13.39,14.67,16.15,3.96,9.08-8.39,14.41-15.1,13.51-.45-.06-.87-.13-1.27-.22-5.82-1.03-4.57,9.44,0,15.19.84,1.68.7,4.42,0,7.6-7.35,18.36-2.22,24.67,0,17.66.81-2.21,1.62-4.41,2.46-6.61,4.56-11.94,11.78-33.45,24.27-36.75,2.77-.73,8.23,2.04,9.45,5.1,1.53,3.83.82,9.61-.66,13.36-6.32,16.09-18.54,53.39-33.89,57.29-.57.15-1.12.26-1.64.36-12.75,3.88-4.99,45.33,0,29.52,1.27-3.76,2.78-7.34,4.12-10.02,2.81-5.62,17.49-37.16,20.93-38.96,3.83-2,3.82,7.87,3.06,10.45-1.16,3.92-3.95,5.75-6.49,8.31-12.79,12.89-.74,9.64.94,17.01,1.02,4.45-.26,7.68-1.8,12.16-1.64,4.8-2.07,7.35-2.96,12.32-.87,4.88-5.26,18.62-9.68,20.44-3.51,1.44-3.9-8.38-8.12-6.15-7.9,8.06-7.07,30.96,0,43.32.88,2.66,2.19,3.99,1.84,7.25-.12,1.17-.88,2.77-1.84,3.84-3.33,3.21-3.6,10.03,0,13.8,1.31,1.84,2.6,3.7,3.7,5.18,5.14,6.94,3.95,10.08,3.81,12.53.14,3.29,1.33,7.51-3.81,16.82-1.1,1.99-2.39,4.47-3.7,6.95-3.6,6.31-4.99,13.32,0,18.52.96,1.44,1.72,3.59,1.84,5.16.34,4.37-.96,6.16-1.84,9.73-15.67,29.22-3.88,69.25,0,58.13,1.87-5.76,4.62-10.19,8.12-8.25,4.42,2.43,8.81,20.88,9.68,27.42.88,6.68,1.31,10.1,2.96,16.54,1.53,6,2.81,10.35,1.8,16.31-1.69,9.89-13.73,5.53-.94,22.83,2.54,3.43,5.33,5.89,6.49,11.15.77,3.46.77,16.7-3.06,14.02-3.44-2.41-18.12-44.74-20.93-52.28-1.34-3.59-2.85-8.4-4.12-13.44-9.29-24.64-9.01,38.47,0,39.61.52.13,1.06.28,1.64.48,15.35,5.24,27.57,55.3,33.89,76.89,1.48,5.04,2.19,12.79.66,17.93-1.22,4.1-6.69,7.83-9.45,6.84-12.49-4.43-19.7-33.3-24.27-49.32-.84-3.37-3.6-8.69-7.04-7.07-5.54,2.77-1.8,14.55,4.57,21.9,1.95,3.43,1.54,5.86,0,10.19-5.13,12.2-5.41,21.77,0,20.39.4-.11.82-.21,1.27-.29,6.71-1.21,19.06,5.94,15.1,18.13-1.2,3.69-11.99,18.52-14.67,21.67-.55.65-1.12,1.24-1.7,1.75-12,13.28-7.55,21.77,0,13.61,10.75-11.38,24.05-42.3,33.98-43.88,7.91-1.26,18.36,6.59,20.14,19.1,1.21,8.52-2.2,32.89-4.26,41.44-3.03,12.59-9.39,18.61-17.14,23.4-7.71,4.76-15.02,14.19-23.55,13.45-1.87-.16-5.17-1.79-9.17-4.25-6.69-3.08-9.78,12.54,0,16.49,6.79,3.04,12.9,1,19.47-5.58,7.59-7.6,13.49-14.29,23.16-9.77,6.63,3.1,14.46,11.36,19.36,18.78,5.91,8.95,11.41,18.91,5.53,31.43-4.5,9.6-13.1,16.55-20.92,15.71-16.22-1.74-26.49-33.91-39.36-36.27-2.16-.4-4.58.28-7.25,1.52-17.15,16.43-1.54,28.4,0,17.91.61-3.11,1.63-5.49,3.41-6.36,5.95-2.9,12.7,7.42,17.27,11.63,5.34,4.91,8.09,10.45,14.45,15.74,8.55,7.1,11.89,5.98,21.23,5.09,4.98-.47,12.19,7.17,19.84,8.29,12.07,1.77-2.77,19.34,8.38,22.09,6.91,1.7,14.8-6.28,22.05-2.03,7.59,4.45-3.18,17.78-6.66,20.59-17.57,14.14-19.32-8.79-29.66-22.96-10.84-14.85-23.34-19.65-36.9-9.47-2.32,1.74-2.28.34-3.93,3.45-.91,1.73-2.33,3.06-3.49,4.43-1.91,2.27-4.51,6.64-6.41,9.42-2.41,3.55-11.12,15.13-10.54,21.2-.18,4.8,5.99,7.89,8.22,0,5.39-15.65,17.75-37.48,30.34-36.36,13.32,1.18,25.45,18.04,30.43,36.36,1.97,7.29,11.32,9.43,23.12,0,1.81-1.96,4.94-4.44,6.63-6.17,8.2-8.39,11.92-18.21,21.99-16.57Z"/>
</svg>