<?xml version="1.0" encoding="UTF-8"?>
<svg id="Layer_1" data-name="Layer 1" xmlns="http://www.w3.org/2000/svg" viewBox="0 0 187.48 89.92">
  <defs>
    <style>
      .cls-1, .cls-2 {
        fill-rule: evenodd;
      }

      .cls-1, .cls-2, .cls-3, .cls-4 {
        stroke-width: 0px;
      }

      .cls-1, .cls-4 {
        fill: #010101;
      }

      .cls-2 {
        fill: #ffe400;
      }

      .cls-3 {
        fill: #fff;
      }
    </style>
  </defs>
  <path class="cls-2" d="m92.4,13.58c-27.22,0-49.29,22.07-49.29,49.29,0,6.46,1.25,12.63,3.51,18.29h91.57c2.26-5.66,3.51-11.83,3.51-18.29,0-27.22-22.07-49.29-49.29-49.29"/>
  <path class="cls-4" d="m82.59,10.5c-14.26,2.83-26.03,11.17-33.52,22.37-7.5,11.2-10.72,25.25-7.9,39.5.62,3.12,1.5,6.13,2.62,8.99h8.35c-1.54-3.26-2.7-6.76-3.44-10.46-2.42-12.2.33-24.21,6.73-33.77,6.4-9.56,16.45-16.68,28.63-19.1,12.2-2.42,24.21.33,33.77,6.73,9.56,6.4,16.68,16.45,19.1,28.63,1.95,9.84.54,19.56-3.44,27.96h8.35c3.56-9.05,4.66-19.19,2.63-29.44-2.83-14.26-11.17-26.03-22.37-33.52-11.2-7.5-25.26-10.72-39.5-7.9"/>
  <path class="cls-2" d="m83.32,14.27c-26.44,5.24-43.63,30.92-38.39,57.37.66,3.33,1.65,6.51,2.92,9.52h89.92c3.68-8.69,4.89-18.54,2.92-28.5-5.24-26.44-30.92-43.63-57.37-38.39"/>
  <path class="cls-1" d="m107.75,32.7c-3.47,0-6.33,5.93-6.75,13.6l6.99,6.07-6.82-.15c.77,6.67,3.42,11.59,6.58,11.59,3.76,0,6.8-6.97,6.8-15.56s-3.04-15.56-6.8-15.56"/>
  <path class="cls-1" d="m81.17,32.7c-3.44,0-6.29,5.85-6.74,13.45l7.17,6.23-7.01-.15c.77,6.67,3.42,11.6,6.58,11.6,3.76,0,6.8-6.97,6.8-15.56s-3.04-15.56-6.8-15.56"/>
  <path class="cls-1" d="m105.3,25c5.54-2.73,8.7-.64,9.52,6.17-1.68-3.79-4.81-5.9-9.52-6.17"/>
  <path class="cls-1" d="m83.38,25c-5.54-2.73-8.7-.64-9.53,6.17,1.68-3.79,4.81-5.9,9.53-6.17"/>
  <path class="cls-1" d="m66.36,62.19c11.76,23.73,45.64,22.94,54.58-.52-15.42,22.7-45.19,14.38-54.58.52"/>
  <path class="cls-4" d="m138.6,84.6c-1.4,1.12-3.01,1.76-4.73,1.76-2.93,0-5.52-1.83-7.34-4.79-1.63-2.65-2.64-6.25-2.64-10.17s1.01-7.52,2.64-10.17c1.82-2.96,4.41-4.79,7.34-4.79,2,0,3.84.85,5.39,2.34-.62.9-1.2,1.85-1.71,2.84-1.07-1.07-2.33-1.68-3.68-1.68-3.9,0-7.05,5.13-7.05,11.47s3.16,11.46,7.05,11.46c1.12,0,2.18-.42,3.12-1.18-.07-.17-.14-.33-.21-.5.53,1.19,1.14,2.34,1.82,3.42"/>
  <path class="cls-3" d="m133.87,59.93c1.35,0,2.61.62,3.68,1.68-1.67,3.2-2.73,6.82-2.73,10.64,0,3.15.74,6.17,1.95,8.92.07.17.14.34.21.5-.94.75-2,1.18-3.12,1.18-3.9,0-7.05-5.13-7.05-11.46s3.16-11.47,7.05-11.47"/>
  <path class="cls-4" d="m156.88,59.62c1.66,0,3.2.95,4.45,2.56-1.14,2.66-1.83,6.02-1.83,9.63,0,4.15.9,7.96,2.37,10.77-1.33,2.07-3.07,3.33-4.99,3.33-4.14,0-7.5-5.89-7.5-13.15s3.36-13.15,7.5-13.15m-11.97,0c1.45,0,2.81.67,3.96,1.84-1.62,3-2.61,6.99-2.61,11.31,0,3.72.73,7.18,1.97,9.99-1,.8-2.12,1.25-3.32,1.25-4.14,0-7.5-5.46-7.5-12.19s3.36-12.19,7.5-12.19Zm31.51,19.94c-.02.12-.04.24-.06.35m-6.25-23.77c1.96.52,4.2,1.93,6.4,3.95,2.62,2.4,5.28,5.73,7.37,9.42,1.67,2.94,2.76,5.75,3.26,8.14.24,1.16.36,2.27.34,3.31h-2.64c.06-2.23-.96-5.5-3.02-9.14-3.82-6.73-9.77-12.19-13.29-12.19s-6.38,5.46-6.38,12.19,2.86,12.19,6.38,12.19c2.05,0,3.87-1.84,5.04-4.7.07-.18.13-.37.19-.56v-.04s.06-.14.06-.14l.02-.06.05-.16v-.02c.04-.13.07-.26.1-.39h0c.08-.33.14-.66.19-1v-.03s.03-.13.03-.13v-.07s.02-.08.02-.08l.02-.13v-.02s.02-.15.02-.15v-.09s.03-.15.03-.15v-.04s.02-.18.02-.18v-.03c.02-.2.04-.41.05-.61v-.21s.01-.01.01-.01v-.2s0-.04,0-.04v-.17s0-.06,0-.06v-.15s0-.08,0-.08v-.34s0-.12,0-.12v-.03s0-.12,0-.12v-.14s0-.16,0-.16v-.05s-.01-.18-.01-.18v-.03s-.01-.2-.01-.2h0s-.01-.21-.01-.21v-.02s-.02-.19-.02-.19v-.04s-.02-.16-.02-.16v-.06s-.02-.14-.02-.14l-.02-.18v-.02s-.01-.1-.01-.1v-.1s-.02-.04-.02-.04l-.02-.15h0s-.02-.14-.02-.14v-.06s-.02-.06-.02-.06l-.02-.13-.02-.17v-.02s-.03-.18-.03-.18h0s-.03-.19-.03-.19v-.02s-.03-.16-.03-.16v-.03s-.03-.14-.03-.14v-.05s-.04-.12-.04-.12v-.07s-.04-.1-.04-.1l-.02-.08-.02-.09-.02-.1-.02-.07-.03-.11v-.05s-.04-.13-.04-.13v-.03s-.05-.14-.05-.14v-.02s-.05-.15-.05-.15h0s-.04-.15-.04-.15h0s-.04-.15-.04-.15v-.03s-.05-.11-.05-.11v-.04s-.05-.1-.05-.1l-.02-.05-.03-.08-.02-.06-.02-.06-.03-.07h0s-.05-.13-.05-.13h0s-.01-.04-.01-.04l-.04-.09v-.02s-.05-.1-.05-.1h0s-.05-.12-.05-.12l.17.14h0c.05.05.11.1.16.15h0s.15.16.15.16h0s.15.16.15.16h0s.14.17.14.17h0s.09.1.09.1l.06.07h.01s.03.05.03.05l.12.14h0s.12.16.12.16v.02s.06.06.06.06l.09.12.04.06.09.13h0s.1.18.1.18l.02.03.04.07.07.12.04.07.07.13.04.08.07.13.04.07.06.13.05.1.05.12.04.08.06.14.04.09.05.12.04.1.05.12.03.08.05.14.03.08.05.15v.04s.08.19.08.19h0s.05.16.05.16v.03s.05.14.05.14l.03.1.03.12.03.11.03.12.03.1.03.12.03.13.02.1.03.15.02.07.03.15.02.09.03.16v.03s.03.14.03.14v.03s.03.15.03.15l.02.1.02.14v.08s.04.16.04.16v.09s.03.13.03.13l.02.12v.1s.03.16.03.16v.03s.01.12.01.12v.05s.02.14.02.14v.05s.01.13.01.13v.04s.01.15.01.15v.05s0,.1,0,.1v.06s0,.13,0,.13v.04s0,.13,0,.13v.04s0,.13,0,.13v.13s0,.03,0,.03v.14s0,.02,0,.02v.18s0,.05,0,.05v.19s0,.03,0,.03v.14s0,.15,0,.15v.15s0,.07,0,.07v.15s0,.07,0,.07v.15s-.01.07-.01.07v.15s-.02.06-.02.06v.15s-.02.06-.02.06v.15s-.02.05-.02.05v.03s-.02.18-.02.18l-.02.15v.05s-.01.05-.01.05c-.01.11-.03.22-.05.33v.02c-.02.12-.04.24-.06.35l-.03.15v.03s-.04.15-.04.15v.03s-.04.15-.04.15v.02s0,.01,0,.01c-.02.11-.05.21-.08.31.07.07.15.13.22.19h-.28l-.02.05h0s-.02.04-.02.04v.02s-.02.03-.02.03v.02s-.02.02-.02.02v.03s-.02.02-.02.02l-.02.04h0s-.02.05-.02.05h0s-.02.05-.02.05h0s-.02.04-.02.04l-.02.05v.02s-.02.02-.02.02v.03s-.02.01-.02.01l-.02.04h0s-.02.05-.02.05h0s-.02.04-.02.04l-.02.04v.02s-.02.03-.02.03v.02s-.02.02-.02.02v.03s-.02.01-.02.01l-.02.04h0s-.02.05-.02.05h0s-.02.04-.02.04h0s-.02.04-.02.04v.02s-.02.03-.02.03v.02s-.02.02-.02.02l-.02.03h0s-.02.05-.02.05h0s-.02.05-.02.05h0s-.02.04-.02.04h0s-.02.04-.02.04v.02s-.02.03-.02.03v.03s-.02.02-.02.02l-.02.03h0s-.02.05-.02.05h0s-.02.05-.02.05h0s-.02.04-.02.04h0s-.02.04-.02.04v.02s-.03.03-.03.03v.02s-.02.02-.02.02l-.02.03h0s-.02.05-.02.05h0s-.03.04-.03.04h0s-.02.04-.02.04h0s-.02.04-.02.04v.02s-.03.02-.03.02l-.02.02v.02s-.03.03-.03.03h0s-.02.05-.02.05h0s-.03.04-.03.04h0s-.02.04-.02.04h0s-.02.04-.02.04v.02s-.03.02-.03.02l-.02.03v.02s-.03.03-.03.03h0s-.03.05-.03.05h0s-.03.04-.03.04h0s-.02.04-.02.04h0s-.02.04-.02.04v.02s-.03.02-.03.02l-.02.03v.02s-.03.03-.03.03h0s-.03.05-.03.05h0l-.03.04h0s-.02.04-.02.04h-.02c-1.59,2.5-3.69,4-6.02,4-1.67,0-3.23-.78-4.56-2.14-1.87,2.71-4.34,4.34-7.09,4.34s-5.06-1.53-6.91-4.09c-1.5,1.21-3.21,1.89-5.06,1.89-3.12,0-5.87-1.95-7.81-5.1-1.73-2.82-2.8-6.64-2.8-10.81s1.07-8,2.8-10.81c1.94-3.15,4.69-5.1,7.81-5.1,2.22,0,4.26.99,5.95,2.7,1.7-1.89,3.77-2.98,6.02-2.98,2.39,0,4.56,1.23,6.32,3.32,1.49-1.91,3.32-3.03,5.33-3.03.54,0,1.07.08,1.58.24Z"/>
  <path class="cls-3" d="m144.91,59.62c1.45,0,2.81.67,3.96,1.84-1.62,3-2.61,6.99-2.61,11.31,0,3.72.73,7.18,1.97,9.99-1,.8-2.12,1.25-3.31,1.25-4.14,0-7.5-5.46-7.5-12.19s3.36-12.19,7.5-12.19"/>
  <path class="cls-3" d="m156.88,59.62c1.67,0,3.2.95,4.45,2.56-1.14,2.66-1.83,6.02-1.83,9.63,0,4.15.9,7.96,2.37,10.77-1.33,2.07-3.07,3.33-4.99,3.33-4.14,0-7.5-5.89-7.5-13.15s3.36-13.15,7.5-13.15"/>
  <path class="cls-3" d="m173.56,79.31c-1.17,2.86-2.99,4.7-5.04,4.7-3.53,0-6.38-5.46-6.38-12.19s2.86-12.19,6.38-12.19,9.48,5.46,13.29,12.19c2.06,3.64,3.08,6.91,3.02,9.14h-8.04s-.4,0-.4,0c-.07-.06-.15-.13-.22-.19.9-3.36.65-10.23-3.01-13.26,1.07,2.21,1.9,7.76.4,11.8"/>
  <path class="cls-4" d="m48.88,84.6c1.4,1.12,3.01,1.76,4.73,1.76,2.93,0,5.52-1.83,7.34-4.79,1.63-2.65,2.64-6.25,2.64-10.17s-1.01-7.52-2.64-10.17c-1.82-2.96-4.41-4.79-7.34-4.79-2,0-3.84.85-5.39,2.34.62.9,1.2,1.85,1.71,2.84,1.07-1.07,2.33-1.68,3.68-1.68,3.9,0,7.05,5.13,7.05,11.47s-3.16,11.46-7.05,11.46c-1.12,0-2.18-.42-3.12-1.18.07-.17.14-.33.21-.5-.53,1.19-1.14,2.34-1.82,3.42"/>
  <path class="cls-3" d="m53.61,59.93c-1.35,0-2.61.62-3.68,1.68,1.67,3.2,2.73,6.82,2.73,10.64,0,3.15-.74,6.17-1.95,8.92-.07.17-.14.34-.21.5.94.75,2,1.18,3.12,1.18,3.9,0,7.05-5.13,7.05-11.46s-3.16-11.47-7.05-11.47"/>
  <path class="cls-4" d="m30.6,59.62c-1.66,0-3.2.95-4.45,2.56,1.14,2.66,1.83,6.02,1.83,9.63,0,4.15-.9,7.96-2.37,10.77,1.32,2.07,3.07,3.33,4.99,3.33,4.14,0,7.5-5.89,7.5-13.15s-3.36-13.15-7.5-13.15m11.97,0c-1.45,0-2.81.67-3.96,1.84,1.62,3,2.61,6.99,2.61,11.31,0,3.72-.73,7.18-1.97,9.99,1,.8,2.12,1.25,3.31,1.25,4.14,0,7.5-5.46,7.5-12.19s-3.36-12.19-7.5-12.19Zm-31.5,19.99c.02.1.03.2.05.3m6.25-23.77c-1.96.52-4.2,1.93-6.4,3.95-2.62,2.4-5.28,5.73-7.37,9.42-1.67,2.95-2.76,5.75-3.26,8.14-.24,1.16-.36,2.27-.34,3.31h2.64c-.06-2.23.96-5.5,3.02-9.14,3.82-6.73,9.77-12.19,13.29-12.19s6.38,5.46,6.38,12.19-2.86,12.19-6.38,12.19c-2.05,0-3.87-1.84-5.04-4.7-.07-.18-.13-.37-.19-.56v-.04s-.06-.16-.06-.16v-.03s-.06-.18-.06-.18h0s-.04-.18-.04-.18l-.02-.08-.03-.13v-.05c-.04-.12-.07-.24-.09-.37l-.04-.21-.03-.19v-.02s0-.03,0-.03l-.03-.17v-.02s-.03-.18-.03-.18v-.02s-.03-.17-.03-.17v-.06c-.02-.13-.04-.26-.05-.38v-.04s-.02-.18-.02-.18v-.03c-.05-.48-.07-.97-.07-1.45h0s0-.08,0-.08v-.34s0-.03,0-.03v-.18s0,0,0,0v-.2s.01-.16.01-.16v-.05s.01-.18.01-.18v-.03s.01-.2.01-.2h0s.01-.21.01-.21v-.02s.02-.19.02-.19v-.04s.02-.17.02-.17v-.06s.02-.14.02-.14h0c.01-.13.03-.25.04-.38v-.02s.02-.11.02-.11v-.03s.03-.18.03-.18h0s0-.07,0-.07l.02-.15v-.04s.03-.17.03-.17v-.02s.03-.18.03-.18h0s.03-.19.03-.19v-.02s.03-.17.03-.17l.03-.18v-.05s.04-.12.04-.12v-.07s.04-.11.04-.11l.02-.08.02-.09.02-.1.02-.07.03-.11v-.05s.05-.13.05-.13v-.03s.05-.14.05-.14v-.02s.05-.15.05-.15h0s.04-.15.04-.15h0c.03-.12.07-.22.1-.32h0s.03-.1.03-.1l.02-.05.03-.08.02-.06.02-.06.03-.07.02-.05.03-.08h0s.04-.09.04-.09l.03-.06.04-.1h0s.05-.12.05-.12l-.17.14h0c-.05.05-.11.1-.16.15h0c-.05.05-.1.1-.15.16h0s-.15.16-.15.16h0s-.14.17-.14.17h-.01s-.13.17-.13.17h0s-.09.12-.09.12l-.05.06v.02s-.14.16-.14.16l-.02.02-.12.16-.02.02-.11.16h0s-.1.16-.1.16l-.02.04-.06.09-.08.13h0s-.09.17-.09.17v.02s-.06.1-.06.1l-.06.12-.04.07-.07.13-.05.11-.04.09-.05.11-.05.12-.04.09-.05.12-.04.09-.06.14-.03.08-.05.13-.03.09-.05.15v.02s-.06.16-.06.16v.03s-.05.13-.05.13l-.03.11-.03.11-.04.12-.03.12-.03.11-.03.12-.03.11-.04.15-.02.08-.03.12-.03.15v.06s-.04.15-.04.15l-.03.13v.06s-.03.1-.03.1v.05s-.04.17-.04.17v.05s-.04.17-.04.17l-.02.12v.09s-.04.15-.04.15v.09s-.03.11-.03.11l-.02.17v.05s-.02.15-.02.15v.11s-.02.14-.02.14v.05s-.01.11-.01.11v.02s-.02.2-.02.2v.03s-.01.17-.01.17v.1s-.01.13-.01.13v.09s0,.15,0,.15v.03s0,.14,0,.14v.03s0,.14,0,.14v.13s0,.06,0,.06v.18s0,.02,0,.02v.18s0,.03,0,.03v.14s0,.08,0,.08v.04s0,.18,0,.18v.15s0,.07,0,.07v.02c0,.13.02.25.03.38v.02s.01.15.01.15v.06s0,.04,0,.04v.15s.02.04.02.04l.02.17h0s.02.16.02.16v.05s.01.03.01.03l.02.16h0s.02.15.02.15v.04s.02.07.02.07c.02.1.03.2.05.3l.03.15v.03s.04.15.04.15v.03s.04.15.04.15v.02s0,.01,0,.01l.04.15.04.14v.02c-.07.07-.14.13-.22.19h.28l.02.04h0s.02.04.02.04v.02s.02.03.02.03v.02s.02.02.02.02v.03s.02.01.02.01l.02.04h0s.02.05.02.05h0s.02.04.02.04h0s.02.04.02.04l.02.04v.02s.02.02.02.02v.03s.02.01.02.01l.02.04h0s.02.05.02.05h0s.02.04.02.04l.02.04v.02s.02.03.02.03v.02s.02.02.02.02l.02.03h0s.02.05.02.05h0s.02.05.02.05h0s.02.04.02.04h0s.02.04.02.04v.02s.02.03.02.03v.02s.02.02.02.02l.02.03h0s.02.05.02.05h0s.02.05.02.05h0s.02.04.02.04h0s.02.04.02.04v.02s.02.03.02.03v.03s.02.02.02.02l.02.03h0s.02.05.02.05h0s.02.05.02.05h0s.02.04.02.04h0s.02.04.02.04v.02s.03.03.03.03v.02s.03.02.03.02l.02.03h0s.02.05.02.05h0s.03.05.03.05h0s.02.04.02.04h0s.02.04.02.04v.02s.03.02.03.02l.02.02v.02s.03.03.03.03h0s.02.05.02.05h0s.03.05.03.05h0s.02.04.02.04h0s.02.04.02.04v.02s.03.02.03.02l.02.03v.02s.03.03.03.03h0s.03.05.03.05h0s.03.04.03.04h0s.02.04.02.04h0s.02.04.02.04v.02s.03.02.03.02l.02.03v.02s.03.03.03.03h0s.03.05.03.05h0s.03.04.03.04h0s.02.04.02.04h.02c1.59,2.5,3.69,4,6.02,4,1.67,0,3.23-.78,4.56-2.14,1.87,2.71,4.34,4.34,7.09,4.34s5.06-1.53,6.91-4.09c1.5,1.21,3.21,1.89,5.06,1.89,3.12,0,5.87-1.95,7.81-5.1,1.73-2.82,2.8-6.64,2.8-10.81s-1.07-8-2.8-10.82c-1.94-3.15-4.69-5.1-7.81-5.1-2.22,0-4.26.99-5.95,2.7-1.7-1.89-3.77-2.99-6.02-2.99-2.39,0-4.56,1.23-6.32,3.32-1.49-1.91-3.32-3.03-5.33-3.03-.54,0-1.07.08-1.58.24Z"/>
  <path class="cls-3" d="m42.57,59.62c-1.45,0-2.81.67-3.96,1.84,1.62,3,2.61,6.99,2.61,11.31,0,3.72-.73,7.18-1.97,9.99,1,.8,2.12,1.25,3.31,1.25,4.14,0,7.5-5.46,7.5-12.19s-3.36-12.19-7.5-12.19"/>
  <path class="cls-3" d="m30.6,59.62c-1.66,0-3.2.95-4.45,2.56,1.14,2.66,1.83,6.02,1.83,9.63,0,4.15-.9,7.96-2.37,10.77,1.32,2.07,3.07,3.33,4.99,3.33,4.14,0,7.5-5.89,7.5-13.15s-3.36-13.15-7.5-13.15"/>
  <path class="cls-3" d="m13.92,79.31c1.17,2.86,2.99,4.7,5.04,4.7,3.53,0,6.38-5.46,6.38-12.19s-2.86-12.19-6.38-12.19-9.48,5.46-13.29,12.19c-2.06,3.64-3.08,6.91-3.02,9.14h8.04s.4,0,.4,0c.07-.06.15-.13.22-.19-.9-3.36-.65-10.23,3.01-13.26-1.07,2.21-1.9,7.76-.41,11.8"/>
</svg>